<mxfile host="Electron" modified="2023-05-04T06:27:12.971Z" agent="Mozilla/5.0 (Windows NT 10.0; Win64; x64) AppleWebKit/537.36 (KHTML, like Gecko) draw.io/21.2.1 Chrome/112.0.5615.87 Electron/24.1.2 Safari/537.36" etag="0qQ_71s4MzUtsYblM6yC" version="21.2.1" type="device">
  <diagram name="페이지-1" id="ZwGF6ZlMhpeo45rsadKt">
    <mxGraphModel dx="4094" dy="2576" grid="1" gridSize="10" guides="1" tooltips="1" connect="1" arrows="1" fold="1" page="1" pageScale="1" pageWidth="827" pageHeight="1169" math="0" shadow="0">
      <root>
        <mxCell id="0" />
        <mxCell id="1" parent="0" />
        <mxCell id="f1HlEf__6IlxcF7phjeX-104" value="" style="shape=ext;double=1;rounded=0;whiteSpace=wrap;html=1;fillColor=#D2DBE7;strokeColor=#9673a6;" parent="1" vertex="1">
          <mxGeometry x="-290" y="-342.5" width="1330" height="1072.5" as="geometry" />
        </mxCell>
        <mxCell id="kf9Kc_V3g3IdQbujQbts-17" value="" style="rounded=0;whiteSpace=wrap;html=1;fillColor=#cdeb8b;strokeColor=#36393d;" parent="1" vertex="1">
          <mxGeometry x="80" y="172.04" width="290" height="507.96" as="geometry" />
        </mxCell>
        <mxCell id="kf9Kc_V3g3IdQbujQbts-15" value="" style="rounded=0;whiteSpace=wrap;html=1;fillColor=#ffe6cc;strokeColor=#d79b00;" parent="1" vertex="1">
          <mxGeometry x="-190" y="172.04" width="270" height="507.96" as="geometry" />
        </mxCell>
        <mxCell id="f1HlEf__6IlxcF7phjeX-78" value="" style="rounded=0;whiteSpace=wrap;html=1;fillColor=#FFCCCC;strokeColor=#9673a6;" parent="1" vertex="1">
          <mxGeometry x="1040" y="-337.96" width="590" height="1067.96" as="geometry" />
        </mxCell>
        <mxCell id="1glshwVwyARpWJLmnn8l-3" value="Initialize&lt;br style=&quot;border-color: var(--border-color);&quot;&gt;(OPEN PORT)&lt;br style=&quot;border-color: var(--border-color);&quot;&gt;(Set PinMode)&amp;nbsp;" style="rounded=0;whiteSpace=wrap;html=1;fillColor=#f9f7ed;strokeColor=#36393d;" parent="1" vertex="1">
          <mxGeometry x="280" y="-200" width="120" height="60" as="geometry" />
        </mxCell>
        <mxCell id="1glshwVwyARpWJLmnn8l-60" style="edgeStyle=orthogonalEdgeStyle;rounded=0;orthogonalLoop=1;jettySize=auto;html=1;exitX=0.5;exitY=1;exitDx=0;exitDy=0;entryX=0.5;entryY=0;entryDx=0;entryDy=0;" parent="1" source="1glshwVwyARpWJLmnn8l-30" edge="1">
          <mxGeometry relative="1" as="geometry">
            <mxPoint x="195" y="272.03999999999996" as="targetPoint" />
          </mxGeometry>
        </mxCell>
        <mxCell id="1glshwVwyARpWJLmnn8l-30" value="TX_Interrupt" style="rounded=0;whiteSpace=wrap;html=1;fillColor=#f9f7ed;strokeColor=#36393d;" parent="1" vertex="1">
          <mxGeometry x="140" y="192.04" width="115" height="57.5" as="geometry" />
        </mxCell>
        <mxCell id="f1HlEf__6IlxcF7phjeX-30" style="edgeStyle=orthogonalEdgeStyle;rounded=0;orthogonalLoop=1;jettySize=auto;html=1;exitX=0.5;exitY=1;exitDx=0;exitDy=0;entryX=0.465;entryY=-0.008;entryDx=0;entryDy=0;entryPerimeter=0;" parent="1" target="f1HlEf__6IlxcF7phjeX-10" edge="1">
          <mxGeometry relative="1" as="geometry">
            <mxPoint x="195" y="332.03999999999996" as="sourcePoint" />
            <Array as="points">
              <mxPoint x="197" y="332" />
            </Array>
          </mxGeometry>
        </mxCell>
        <mxCell id="f1HlEf__6IlxcF7phjeX-83" style="edgeStyle=orthogonalEdgeStyle;rounded=0;orthogonalLoop=1;jettySize=auto;html=1;exitX=0.5;exitY=1;exitDx=0;exitDy=0;entryX=0.5;entryY=0;entryDx=0;entryDy=0;" parent="1" source="1glshwVwyARpWJLmnn8l-38" target="f1HlEf__6IlxcF7phjeX-82" edge="1">
          <mxGeometry relative="1" as="geometry" />
        </mxCell>
        <mxCell id="f1HlEf__6IlxcF7phjeX-109" value="YES" style="edgeLabel;html=1;align=center;verticalAlign=middle;resizable=0;points=[];labelBackgroundColor=#D2DBE7;" parent="f1HlEf__6IlxcF7phjeX-83" vertex="1" connectable="0">
          <mxGeometry x="-0.202" relative="1" as="geometry">
            <mxPoint as="offset" />
          </mxGeometry>
        </mxCell>
        <mxCell id="f1HlEf__6IlxcF7phjeX-105" style="edgeStyle=orthogonalEdgeStyle;rounded=0;orthogonalLoop=1;jettySize=auto;html=1;exitX=1;exitY=0.5;exitDx=0;exitDy=0;entryX=0.788;entryY=0.995;entryDx=0;entryDy=0;entryPerimeter=0;" parent="1" source="1glshwVwyARpWJLmnn8l-38" target="f1HlEf__6IlxcF7phjeX-10" edge="1">
          <mxGeometry relative="1" as="geometry">
            <Array as="points">
              <mxPoint x="274" y="527" />
            </Array>
          </mxGeometry>
        </mxCell>
        <mxCell id="f1HlEf__6IlxcF7phjeX-106" value="NO" style="edgeLabel;html=1;align=center;verticalAlign=middle;resizable=0;points=[];labelBackgroundColor=#D2DBE7;" parent="f1HlEf__6IlxcF7phjeX-105" vertex="1" connectable="0">
          <mxGeometry x="-0.2223" y="-4" relative="1" as="geometry">
            <mxPoint y="3" as="offset" />
          </mxGeometry>
        </mxCell>
        <mxCell id="1glshwVwyARpWJLmnn8l-38" value="END" style="rhombus;whiteSpace=wrap;html=1;fillColor=#ffcccc;strokeColor=#36393d;" parent="1" vertex="1">
          <mxGeometry x="160" y="492.04" width="80" height="70" as="geometry" />
        </mxCell>
        <mxCell id="0pEK2wuluWOF_c6K8Uz9-105" style="edgeStyle=orthogonalEdgeStyle;rounded=0;orthogonalLoop=1;jettySize=auto;html=1;exitX=0.5;exitY=1;exitDx=0;exitDy=0;entryX=0.5;entryY=0;entryDx=0;entryDy=0;strokeWidth=1;" parent="1" source="1glshwVwyARpWJLmnn8l-41" target="0pEK2wuluWOF_c6K8Uz9-21" edge="1">
          <mxGeometry relative="1" as="geometry">
            <Array as="points">
              <mxPoint x="1350" y="63.04" />
              <mxPoint x="1158" y="63.04" />
            </Array>
          </mxGeometry>
        </mxCell>
        <mxCell id="0pEK2wuluWOF_c6K8Uz9-106" style="edgeStyle=orthogonalEdgeStyle;rounded=0;orthogonalLoop=1;jettySize=auto;html=1;exitX=0.5;exitY=1;exitDx=0;exitDy=0;entryX=0.5;entryY=0;entryDx=0;entryDy=0;strokeWidth=1;" parent="1" source="1glshwVwyARpWJLmnn8l-41" target="0pEK2wuluWOF_c6K8Uz9-73" edge="1">
          <mxGeometry relative="1" as="geometry">
            <Array as="points">
              <mxPoint x="1350" y="62.04" />
              <mxPoint x="1430" y="62.04" />
            </Array>
          </mxGeometry>
        </mxCell>
        <mxCell id="1glshwVwyARpWJLmnn8l-41" value="Initialize &lt;br&gt;(OPEN PORT)&lt;br&gt;(Set PinMode)&amp;nbsp;" style="rounded=0;whiteSpace=wrap;html=1;fillColor=#f9f7ed;strokeColor=#36393d;" parent="1" vertex="1">
          <mxGeometry x="1291" y="-87.96" width="119" height="60" as="geometry" />
        </mxCell>
        <mxCell id="f1HlEf__6IlxcF7phjeX-54" style="edgeStyle=orthogonalEdgeStyle;rounded=0;orthogonalLoop=1;jettySize=auto;html=1;exitX=0.5;exitY=1;exitDx=0;exitDy=0;" parent="1" source="1glshwVwyARpWJLmnn8l-63" edge="1">
          <mxGeometry relative="1" as="geometry">
            <mxPoint x="-70" y="280" as="targetPoint" />
          </mxGeometry>
        </mxCell>
        <mxCell id="1glshwVwyARpWJLmnn8l-63" value="RX_Interrupt" style="rounded=0;whiteSpace=wrap;html=1;fillColor=#f9f7ed;strokeColor=#36393d;" parent="1" vertex="1">
          <mxGeometry x="-120" y="219.54" width="120" height="40" as="geometry" />
        </mxCell>
        <mxCell id="f1HlEf__6IlxcF7phjeX-25" style="edgeStyle=orthogonalEdgeStyle;rounded=0;orthogonalLoop=1;jettySize=auto;html=1;exitX=0.5;exitY=1;exitDx=0;exitDy=0;exitPerimeter=0;" parent="1" source="f1HlEf__6IlxcF7phjeX-3" target="1glshwVwyARpWJLmnn8l-3" edge="1">
          <mxGeometry relative="1" as="geometry">
            <mxPoint x="340" y="-202.5" as="targetPoint" />
          </mxGeometry>
        </mxCell>
        <mxCell id="f1HlEf__6IlxcF7phjeX-3" value="MASTER" style="strokeWidth=2;html=1;shape=mxgraph.flowchart.terminator;whiteSpace=wrap;fillColor=#e1d5e7;strokeColor=#9673a6;" parent="1" vertex="1">
          <mxGeometry x="290" y="-280" width="100" height="60" as="geometry" />
        </mxCell>
        <mxCell id="f1HlEf__6IlxcF7phjeX-23" style="edgeStyle=orthogonalEdgeStyle;rounded=0;orthogonalLoop=1;jettySize=auto;html=1;exitX=0.5;exitY=1;exitDx=0;exitDy=0;exitPerimeter=0;" parent="1" source="f1HlEf__6IlxcF7phjeX-4" target="1glshwVwyARpWJLmnn8l-41" edge="1">
          <mxGeometry relative="1" as="geometry">
            <mxPoint x="1351" y="2.04" as="targetPoint" />
          </mxGeometry>
        </mxCell>
        <mxCell id="f1HlEf__6IlxcF7phjeX-4" value="SLAVE" style="strokeWidth=2;html=1;shape=mxgraph.flowchart.terminator;whiteSpace=wrap;fillColor=#e1d5e7;strokeColor=#9673a6;" parent="1" vertex="1">
          <mxGeometry x="1300.5" y="-280" width="100" height="60" as="geometry" />
        </mxCell>
        <mxCell id="f1HlEf__6IlxcF7phjeX-28" style="edgeStyle=orthogonalEdgeStyle;rounded=0;orthogonalLoop=1;jettySize=auto;html=1;exitX=1;exitY=0.5;exitDx=0;exitDy=0;entryX=0;entryY=0.5;entryDx=0;entryDy=0;entryPerimeter=0;" parent="1" source="f1HlEf__6IlxcF7phjeX-27" target="f1HlEf__6IlxcF7phjeX-4" edge="1">
          <mxGeometry relative="1" as="geometry" />
        </mxCell>
        <mxCell id="f1HlEf__6IlxcF7phjeX-29" style="edgeStyle=orthogonalEdgeStyle;rounded=0;orthogonalLoop=1;jettySize=auto;html=1;exitX=0;exitY=0.5;exitDx=0;exitDy=0;entryX=1;entryY=0.5;entryDx=0;entryDy=0;entryPerimeter=0;" parent="1" source="f1HlEf__6IlxcF7phjeX-27" target="f1HlEf__6IlxcF7phjeX-3" edge="1">
          <mxGeometry relative="1" as="geometry" />
        </mxCell>
        <mxCell id="f1HlEf__6IlxcF7phjeX-27" value="I2C 통신" style="rounded=0;whiteSpace=wrap;html=1;fillColor=#f9f7ed;strokeColor=#36393d;" parent="1" vertex="1">
          <mxGeometry x="980" y="-280" width="110" height="60" as="geometry" />
        </mxCell>
        <mxCell id="f1HlEf__6IlxcF7phjeX-31" value="" style="endArrow=classic;html=1;rounded=0;entryX=0.5;entryY=0;entryDx=0;entryDy=0;exitX=0.475;exitY=1.027;exitDx=0;exitDy=0;exitPerimeter=0;" parent="1" source="f1HlEf__6IlxcF7phjeX-10" target="1glshwVwyARpWJLmnn8l-38" edge="1">
          <mxGeometry width="50" height="50" relative="1" as="geometry">
            <mxPoint x="-65" y="282.04" as="sourcePoint" />
            <mxPoint x="-15" y="232.04" as="targetPoint" />
          </mxGeometry>
        </mxCell>
        <mxCell id="f1HlEf__6IlxcF7phjeX-49" value="" style="group" parent="1" vertex="1" connectable="0">
          <mxGeometry x="1040" y="194.54" width="264" height="490" as="geometry" />
        </mxCell>
        <mxCell id="0pEK2wuluWOF_c6K8Uz9-20" value="" style="group" parent="f1HlEf__6IlxcF7phjeX-49" vertex="1" connectable="0">
          <mxGeometry x="-57" y="-40" width="321" height="417.5" as="geometry" />
        </mxCell>
        <mxCell id="0pEK2wuluWOF_c6K8Uz9-21" value="" style="rounded=0;whiteSpace=wrap;html=1;fillColor=#CDEB8B;strokeColor=#000000;" parent="0pEK2wuluWOF_c6K8Uz9-20" vertex="1">
          <mxGeometry x="80" width="190" height="410" as="geometry" />
        </mxCell>
        <mxCell id="0pEK2wuluWOF_c6K8Uz9-22" value="Receive_buff" style="rounded=0;whiteSpace=wrap;html=1;fillColor=#f9f7ed;strokeColor=#36393d;" parent="0pEK2wuluWOF_c6K8Uz9-20" vertex="1">
          <mxGeometry x="110.5" y="50" width="110" height="50" as="geometry" />
        </mxCell>
        <mxCell id="0pEK2wuluWOF_c6K8Uz9-23" value="데이터 변환" style="rounded=0;whiteSpace=wrap;html=1;fillColor=#f9f7ed;strokeColor=#36393d;" parent="0pEK2wuluWOF_c6K8Uz9-20" vertex="1">
          <mxGeometry x="110.5" y="180" width="110" height="50" as="geometry" />
        </mxCell>
        <mxCell id="0pEK2wuluWOF_c6K8Uz9-27" style="edgeStyle=orthogonalEdgeStyle;rounded=0;orthogonalLoop=1;jettySize=auto;html=1;exitX=0.5;exitY=1;exitDx=0;exitDy=0;entryX=0.5;entryY=0;entryDx=0;entryDy=0;" parent="0pEK2wuluWOF_c6K8Uz9-20" source="0pEK2wuluWOF_c6K8Uz9-22" target="0pEK2wuluWOF_c6K8Uz9-23" edge="1">
          <mxGeometry relative="1" as="geometry">
            <mxPoint x="170" y="120" as="targetPoint" />
          </mxGeometry>
        </mxCell>
        <mxCell id="0pEK2wuluWOF_c6K8Uz9-29" style="edgeStyle=orthogonalEdgeStyle;rounded=0;orthogonalLoop=1;jettySize=auto;html=1;exitX=0.5;exitY=1;exitDx=0;exitDy=0;entryX=0.5;entryY=0;entryDx=0;entryDy=0;" parent="0pEK2wuluWOF_c6K8Uz9-20" source="0pEK2wuluWOF_c6K8Uz9-23" target="yr6knBJ-R2vz9ehcWOlT-8" edge="1">
          <mxGeometry relative="1" as="geometry">
            <mxPoint x="165.5" y="277.5" as="targetPoint" />
          </mxGeometry>
        </mxCell>
        <mxCell id="0pEK2wuluWOF_c6K8Uz9-32" value="OUTPUT" style="text;html=1;strokeColor=none;fillColor=none;align=center;verticalAlign=middle;whiteSpace=wrap;rounded=0;" parent="0pEK2wuluWOF_c6K8Uz9-20" vertex="1">
          <mxGeometry x="80" width="60" height="30" as="geometry" />
        </mxCell>
        <mxCell id="yr6knBJ-R2vz9ehcWOlT-8" value="LED 점등" style="shape=document;whiteSpace=wrap;html=1;boundedLbl=1;fillColor=#b0e3e6;strokeColor=#0e8088;" parent="0pEK2wuluWOF_c6K8Uz9-20" vertex="1">
          <mxGeometry x="123.25" y="285.46" width="84.5" height="52.5" as="geometry" />
        </mxCell>
        <mxCell id="f1HlEf__6IlxcF7phjeX-56" style="edgeStyle=orthogonalEdgeStyle;rounded=0;orthogonalLoop=1;jettySize=auto;html=1;exitX=0.5;exitY=1;exitDx=0;exitDy=0;entryX=0.5;entryY=0;entryDx=0;entryDy=0;" parent="1" target="f1HlEf__6IlxcF7phjeX-53" edge="1">
          <mxGeometry relative="1" as="geometry">
            <mxPoint x="-70" y="438.98" as="sourcePoint" />
          </mxGeometry>
        </mxCell>
        <mxCell id="f1HlEf__6IlxcF7phjeX-53" value="END" style="rhombus;whiteSpace=wrap;html=1;fillColor=#ffcccc;strokeColor=#36393d;" parent="1" vertex="1">
          <mxGeometry x="-110" y="487.5" width="80" height="65" as="geometry" />
        </mxCell>
        <mxCell id="f1HlEf__6IlxcF7phjeX-73" value="" style="group" parent="1" vertex="1" connectable="0">
          <mxGeometry x="-110" y="292.04" width="221" height="359.0403902646326" as="geometry" />
        </mxCell>
        <mxCell id="yr6knBJ-R2vz9ehcWOlT-54" value="watchdog reset" style="rounded=0;whiteSpace=wrap;html=1;fillColor=#f9f7ed;strokeColor=#36393d;" parent="f1HlEf__6IlxcF7phjeX-73" vertex="1">
          <mxGeometry x="-50" y="299.2740387254424" width="87" height="33.766351539190254" as="geometry" />
        </mxCell>
        <mxCell id="yr6knBJ-R2vz9ehcWOlT-55" value="watchdog reset" style="rounded=0;whiteSpace=wrap;html=1;fillColor=#f9f7ed;strokeColor=#36393d;" parent="f1HlEf__6IlxcF7phjeX-73" vertex="1">
          <mxGeometry x="59" y="299.2740387254424" width="91" height="33.766351539190254" as="geometry" />
        </mxCell>
        <mxCell id="yr6knBJ-R2vz9ehcWOlT-56" value="" style="endArrow=classic;startArrow=classic;html=1;rounded=0;entryX=0.5;entryY=0;entryDx=0;entryDy=0;exitX=0.5;exitY=0;exitDx=0;exitDy=0;" parent="f1HlEf__6IlxcF7phjeX-73" source="yr6knBJ-R2vz9ehcWOlT-54" target="yr6knBJ-R2vz9ehcWOlT-55" edge="1">
          <mxGeometry width="50" height="50" relative="1" as="geometry">
            <mxPoint x="-490" y="-7.0400000000000205" as="sourcePoint" />
            <mxPoint x="-440" y="-57.04000000000002" as="targetPoint" />
            <Array as="points">
              <mxPoint x="-6" y="282.96" />
              <mxPoint x="105" y="282.96" />
            </Array>
          </mxGeometry>
        </mxCell>
        <mxCell id="yr6knBJ-R2vz9ehcWOlT-57" value="" style="endArrow=none;html=1;rounded=0;exitX=0.5;exitY=1;exitDx=0;exitDy=0;" parent="f1HlEf__6IlxcF7phjeX-73" edge="1">
          <mxGeometry width="50" height="50" relative="1" as="geometry">
            <mxPoint x="44" y="251.95999999999998" as="sourcePoint" />
            <mxPoint x="44" y="282.96" as="targetPoint" />
          </mxGeometry>
        </mxCell>
        <mxCell id="yr6knBJ-R2vz9ehcWOlT-58" value="YES" style="edgeLabel;html=1;align=center;verticalAlign=middle;resizable=0;points=[];labelBackgroundColor=#FFE6CC;" parent="yr6knBJ-R2vz9ehcWOlT-57" vertex="1" connectable="0">
          <mxGeometry x="0.3206" y="3" relative="1" as="geometry">
            <mxPoint x="-1" y="-8" as="offset" />
          </mxGeometry>
        </mxCell>
        <mxCell id="yr6knBJ-R2vz9ehcWOlT-64" style="edgeStyle=orthogonalEdgeStyle;rounded=0;orthogonalLoop=1;jettySize=auto;html=1;exitX=1;exitY=0.5;exitDx=0;exitDy=0;" parent="f1HlEf__6IlxcF7phjeX-73" source="f1HlEf__6IlxcF7phjeX-53" edge="1">
          <mxGeometry relative="1" as="geometry">
            <Array as="points">
              <mxPoint x="140" y="228" />
              <mxPoint x="140" y="50" />
            </Array>
            <mxPoint x="120" y="50" as="targetPoint" />
            <mxPoint x="92.5" y="212.49999999999994" as="sourcePoint" />
          </mxGeometry>
        </mxCell>
        <mxCell id="yr6knBJ-R2vz9ehcWOlT-65" value="NO" style="edgeLabel;html=1;align=center;verticalAlign=middle;resizable=0;points=[];labelBackgroundColor=#FFE6CC;" parent="yr6knBJ-R2vz9ehcWOlT-64" vertex="1" connectable="0">
          <mxGeometry x="-0.2861" y="2" relative="1" as="geometry">
            <mxPoint as="offset" />
          </mxGeometry>
        </mxCell>
        <mxCell id="yr6knBJ-R2vz9ehcWOlT-70" value="Interrupt enable" style="rounded=0;whiteSpace=wrap;html=1;fillColor=#f9f7ed;strokeColor=#36393d;" parent="f1HlEf__6IlxcF7phjeX-73" vertex="1">
          <mxGeometry x="59" y="299.2740387254424" width="91" height="33.766351539190254" as="geometry" />
        </mxCell>
        <mxCell id="yr6knBJ-R2vz9ehcWOlT-71" value="" style="endArrow=classic;startArrow=classic;html=1;rounded=0;entryX=0.5;entryY=0;entryDx=0;entryDy=0;exitX=0.5;exitY=0;exitDx=0;exitDy=0;" parent="f1HlEf__6IlxcF7phjeX-73" target="yr6knBJ-R2vz9ehcWOlT-70" edge="1">
          <mxGeometry width="50" height="50" relative="1" as="geometry">
            <mxPoint x="-6" y="298.99999999999994" as="sourcePoint" />
            <mxPoint x="-440" y="-57.04000000000002" as="targetPoint" />
            <Array as="points">
              <mxPoint x="-6" y="282.96" />
              <mxPoint x="105" y="282.96" />
            </Array>
          </mxGeometry>
        </mxCell>
        <mxCell id="yr6knBJ-R2vz9ehcWOlT-72" value="" style="endArrow=none;html=1;rounded=0;exitX=0.5;exitY=1;exitDx=0;exitDy=0;" parent="f1HlEf__6IlxcF7phjeX-73" edge="1">
          <mxGeometry width="50" height="50" relative="1" as="geometry">
            <mxPoint x="44" y="251.95999999999998" as="sourcePoint" />
            <mxPoint x="44" y="282.96" as="targetPoint" />
          </mxGeometry>
        </mxCell>
        <mxCell id="yr6knBJ-R2vz9ehcWOlT-73" value="YES" style="edgeLabel;html=1;align=center;verticalAlign=middle;resizable=0;points=[];labelBackgroundColor=#FFE6CC;" parent="yr6knBJ-R2vz9ehcWOlT-72" vertex="1" connectable="0">
          <mxGeometry x="0.3206" y="3" relative="1" as="geometry">
            <mxPoint x="-1" y="-8" as="offset" />
          </mxGeometry>
        </mxCell>
        <mxCell id="yr6knBJ-R2vz9ehcWOlT-74" style="edgeStyle=orthogonalEdgeStyle;rounded=0;orthogonalLoop=1;jettySize=auto;html=1;exitX=1;exitY=0.5;exitDx=0;exitDy=0;entryX=1;entryY=0.5;entryDx=0;entryDy=0;" parent="f1HlEf__6IlxcF7phjeX-73" source="yr6knBJ-R2vz9ehcWOlT-70" edge="1">
          <mxGeometry relative="1" as="geometry">
            <Array as="points">
              <mxPoint x="150" y="310" />
              <mxPoint x="170" y="310" />
              <mxPoint x="170" y="-53" />
            </Array>
            <mxPoint x="130" y="309.99999999999994" as="sourcePoint" />
            <mxPoint x="110" y="-52.50000000000006" as="targetPoint" />
          </mxGeometry>
        </mxCell>
        <mxCell id="yr6knBJ-R2vz9ehcWOlT-75" value="Rx Interrupt" style="text;html=1;strokeColor=none;fillColor=none;align=center;verticalAlign=middle;whiteSpace=wrap;rounded=0;" parent="f1HlEf__6IlxcF7phjeX-73" vertex="1">
          <mxGeometry x="-80" y="-120.00000000000003" width="70" height="30" as="geometry" />
        </mxCell>
        <mxCell id="yr6knBJ-R2vz9ehcWOlT-77" value="" style="group" parent="f1HlEf__6IlxcF7phjeX-73" vertex="1" connectable="0">
          <mxGeometry x="-20" y="-12.04" width="140" height="82.53999999999999" as="geometry" />
        </mxCell>
        <mxCell id="f1HlEf__6IlxcF7phjeX-72" value="" style="group;fillColor=#dae8fc;strokeColor=#6c8ebf;container=0;" parent="yr6knBJ-R2vz9ehcWOlT-77" vertex="1" connectable="0">
          <mxGeometry y="0.03999999999999915" width="140" height="82.5" as="geometry" />
        </mxCell>
        <mxCell id="f1HlEf__6IlxcF7phjeX-51" value="Button" style="shape=parallelogram;perimeter=parallelogramPerimeter;whiteSpace=wrap;html=1;fixedSize=1;fillColor=#cce5ff;strokeColor=#36393d;" parent="yr6knBJ-R2vz9ehcWOlT-77" vertex="1">
          <mxGeometry x="22.5" y="22.04" width="95" height="45" as="geometry" />
        </mxCell>
        <mxCell id="f1HlEf__6IlxcF7phjeX-71" value="Receive" style="text;html=1;strokeColor=none;fillColor=none;align=center;verticalAlign=middle;whiteSpace=wrap;rounded=0;" parent="yr6knBJ-R2vz9ehcWOlT-77" vertex="1">
          <mxGeometry width="50" height="22.04" as="geometry" />
        </mxCell>
        <mxCell id="f1HlEf__6IlxcF7phjeX-75" value="" style="group" parent="1" vertex="1" connectable="0">
          <mxGeometry x="75" y="362.04" width="250" height="100" as="geometry" />
        </mxCell>
        <mxCell id="f1HlEf__6IlxcF7phjeX-10" value="" style="verticalLabelPosition=bottom;verticalAlign=top;html=1;shape=mxgraph.basic.rect;fillColor2=none;strokeWidth=1;size=20;indent=5;container=0;fillColor=#dae8fc;strokeColor=#6c8ebf;" parent="f1HlEf__6IlxcF7phjeX-75" vertex="1">
          <mxGeometry x="10" width="240" height="100" as="geometry" />
        </mxCell>
        <mxCell id="1glshwVwyARpWJLmnn8l-36" value="ADC" style="shape=parallelogram;perimeter=parallelogramPerimeter;whiteSpace=wrap;html=1;fixedSize=1;fillColor=#cce5ff;strokeColor=#36393d;container=0;" parent="f1HlEf__6IlxcF7phjeX-75" vertex="1">
          <mxGeometry x="30" y="25" width="90" height="60" as="geometry" />
        </mxCell>
        <mxCell id="1glshwVwyARpWJLmnn8l-37" value="Switch" style="shape=parallelogram;perimeter=parallelogramPerimeter;whiteSpace=wrap;html=1;fixedSize=1;fillColor=#cce5ff;strokeColor=#36393d;container=0;" parent="f1HlEf__6IlxcF7phjeX-75" vertex="1">
          <mxGeometry x="140" y="25" width="90" height="60" as="geometry" />
        </mxCell>
        <mxCell id="f1HlEf__6IlxcF7phjeX-11" value="Send" style="text;html=1;strokeColor=none;fillColor=none;align=center;verticalAlign=middle;whiteSpace=wrap;rounded=0;container=0;" parent="f1HlEf__6IlxcF7phjeX-75" vertex="1">
          <mxGeometry width="60" height="30" as="geometry" />
        </mxCell>
        <mxCell id="f1HlEf__6IlxcF7phjeX-82" value="Interrupt enable" style="rounded=0;whiteSpace=wrap;html=1;fillColor=#f9f7ed;strokeColor=#36393d;" parent="1" vertex="1">
          <mxGeometry x="142.5" y="592.04" width="115" height="40" as="geometry" />
        </mxCell>
        <mxCell id="f1HlEf__6IlxcF7phjeX-84" style="edgeStyle=orthogonalEdgeStyle;rounded=0;orthogonalLoop=1;jettySize=auto;html=1;exitX=1;exitY=0.5;exitDx=0;exitDy=0;entryX=1;entryY=0.5;entryDx=0;entryDy=0;" parent="1" source="f1HlEf__6IlxcF7phjeX-82" target="1glshwVwyARpWJLmnn8l-30" edge="1">
          <mxGeometry relative="1" as="geometry">
            <Array as="points">
              <mxPoint x="335" y="612.04" />
              <mxPoint x="335" y="220.04" />
            </Array>
          </mxGeometry>
        </mxCell>
        <mxCell id="BFoAyvisKUFXEgnlOEMM-1" value="" style="rounded=0;whiteSpace=wrap;html=1;fillColor=#CBE7E0;strokeColor=#9673a6;" parent="1" vertex="1">
          <mxGeometry x="-930" y="-340" width="640" height="1070" as="geometry" />
        </mxCell>
        <mxCell id="BFoAyvisKUFXEgnlOEMM-2" style="edgeStyle=orthogonalEdgeStyle;rounded=0;orthogonalLoop=1;jettySize=auto;html=1;exitX=0.5;exitY=1;exitDx=0;exitDy=0;entryX=0.5;entryY=0;entryDx=0;entryDy=0;" parent="1" source="BFoAyvisKUFXEgnlOEMM-4" target="BFoAyvisKUFXEgnlOEMM-10" edge="1">
          <mxGeometry relative="1" as="geometry" />
        </mxCell>
        <mxCell id="BFoAyvisKUFXEgnlOEMM-3" style="edgeStyle=orthogonalEdgeStyle;rounded=0;orthogonalLoop=1;jettySize=auto;html=1;exitX=0.5;exitY=1;exitDx=0;exitDy=0;entryX=0.5;entryY=0;entryDx=0;entryDy=0;" parent="1" source="BFoAyvisKUFXEgnlOEMM-4" target="BFoAyvisKUFXEgnlOEMM-23" edge="1">
          <mxGeometry relative="1" as="geometry">
            <Array as="points">
              <mxPoint x="-619" y="212.5" />
              <mxPoint x="-450" y="212.5" />
            </Array>
          </mxGeometry>
        </mxCell>
        <mxCell id="BFoAyvisKUFXEgnlOEMM-4" value="Initialize, OPEN PORT" style="rounded=0;whiteSpace=wrap;html=1;fillColor=#f9f7ed;strokeColor=#36393d;" parent="1" vertex="1">
          <mxGeometry x="-649" y="122.5" width="120" height="60" as="geometry" />
        </mxCell>
        <mxCell id="BFoAyvisKUFXEgnlOEMM-5" style="edgeStyle=orthogonalEdgeStyle;rounded=0;orthogonalLoop=1;jettySize=auto;html=1;exitX=0.5;exitY=1;exitDx=0;exitDy=0;entryX=0.5;entryY=0;entryDx=0;entryDy=0;" parent="1" source="BFoAyvisKUFXEgnlOEMM-6" target="BFoAyvisKUFXEgnlOEMM-4" edge="1">
          <mxGeometry relative="1" as="geometry" />
        </mxCell>
        <mxCell id="BFoAyvisKUFXEgnlOEMM-6" value="OPEN GUI" style="rounded=0;whiteSpace=wrap;html=1;fillColor=#f9f7ed;strokeColor=#36393d;" parent="1" vertex="1">
          <mxGeometry x="-649" y="2.5" width="120" height="60" as="geometry" />
        </mxCell>
        <mxCell id="BFoAyvisKUFXEgnlOEMM-7" style="edgeStyle=orthogonalEdgeStyle;rounded=0;orthogonalLoop=1;jettySize=auto;html=1;exitX=0.5;exitY=1;exitDx=0;exitDy=0;exitPerimeter=0;entryX=0.5;entryY=0;entryDx=0;entryDy=0;" parent="1" source="BFoAyvisKUFXEgnlOEMM-8" target="BFoAyvisKUFXEgnlOEMM-6" edge="1">
          <mxGeometry relative="1" as="geometry" />
        </mxCell>
        <mxCell id="BFoAyvisKUFXEgnlOEMM-8" value="PC" style="strokeWidth=2;html=1;shape=mxgraph.flowchart.terminator;whiteSpace=wrap;fillColor=#e1d5e7;strokeColor=#9673a6;" parent="1" vertex="1">
          <mxGeometry x="-639" y="-280" width="100" height="60" as="geometry" />
        </mxCell>
        <mxCell id="BFoAyvisKUFXEgnlOEMM-9" value="" style="group" parent="1" vertex="1" connectable="0">
          <mxGeometry x="-940" y="242.5" width="400" height="447.5" as="geometry" />
        </mxCell>
        <mxCell id="0pEK2wuluWOF_c6K8Uz9-107" value="" style="group" parent="BFoAyvisKUFXEgnlOEMM-9" vertex="1" connectable="0">
          <mxGeometry x="40" width="360" height="447.5" as="geometry" />
        </mxCell>
        <mxCell id="BFoAyvisKUFXEgnlOEMM-10" value="" style="rounded=0;whiteSpace=wrap;html=1;fillColor=#ffe6cc;strokeColor=#d79b00;" parent="0pEK2wuluWOF_c6K8Uz9-107" vertex="1">
          <mxGeometry width="311" height="410" as="geometry" />
        </mxCell>
        <mxCell id="BFoAyvisKUFXEgnlOEMM-11" value="Receive_buff" style="rounded=0;whiteSpace=wrap;html=1;fillColor=#f9f7ed;strokeColor=#36393d;" parent="0pEK2wuluWOF_c6K8Uz9-107" vertex="1">
          <mxGeometry x="70.5" y="50" width="110" height="50" as="geometry" />
        </mxCell>
        <mxCell id="BFoAyvisKUFXEgnlOEMM-12" value="데이터 변환" style="rounded=0;whiteSpace=wrap;html=1;fillColor=#f9f7ed;strokeColor=#36393d;" parent="0pEK2wuluWOF_c6K8Uz9-107" vertex="1">
          <mxGeometry x="90" y="240" width="110" height="50" as="geometry" />
        </mxCell>
        <mxCell id="BFoAyvisKUFXEgnlOEMM-13" style="edgeStyle=orthogonalEdgeStyle;rounded=0;orthogonalLoop=1;jettySize=auto;html=1;exitX=0.5;exitY=1;exitDx=0;exitDy=0;entryX=0.5;entryY=0;entryDx=0;entryDy=0;" parent="0pEK2wuluWOF_c6K8Uz9-107" source="BFoAyvisKUFXEgnlOEMM-15" target="BFoAyvisKUFXEgnlOEMM-12" edge="1">
          <mxGeometry relative="1" as="geometry" />
        </mxCell>
        <mxCell id="BFoAyvisKUFXEgnlOEMM-14" value="YES" style="edgeLabel;html=1;align=center;verticalAlign=middle;resizable=0;points=[];labelBackgroundColor=#FFE6CC;" parent="BFoAyvisKUFXEgnlOEMM-13" vertex="1" connectable="0">
          <mxGeometry x="-0.2691" y="4" relative="1" as="geometry">
            <mxPoint as="offset" />
          </mxGeometry>
        </mxCell>
        <mxCell id="BFoAyvisKUFXEgnlOEMM-15" value="MODBUS protocol &lt;br&gt;확인&amp;nbsp;" style="rhombus;whiteSpace=wrap;html=1;fillColor=#f8cecc;strokeColor=#b85450;" parent="0pEK2wuluWOF_c6K8Uz9-107" vertex="1">
          <mxGeometry x="55" y="120" width="150" height="80" as="geometry" />
        </mxCell>
        <mxCell id="BFoAyvisKUFXEgnlOEMM-16" style="edgeStyle=orthogonalEdgeStyle;rounded=0;orthogonalLoop=1;jettySize=auto;html=1;exitX=0.5;exitY=1;exitDx=0;exitDy=0;entryX=0.5;entryY=0;entryDx=0;entryDy=0;" parent="0pEK2wuluWOF_c6K8Uz9-107" source="BFoAyvisKUFXEgnlOEMM-11" target="BFoAyvisKUFXEgnlOEMM-15" edge="1">
          <mxGeometry relative="1" as="geometry" />
        </mxCell>
        <mxCell id="BFoAyvisKUFXEgnlOEMM-18" style="edgeStyle=orthogonalEdgeStyle;rounded=0;orthogonalLoop=1;jettySize=auto;html=1;exitX=0.5;exitY=1;exitDx=0;exitDy=0;entryX=0.423;entryY=-0.062;entryDx=0;entryDy=0;entryPerimeter=0;" parent="0pEK2wuluWOF_c6K8Uz9-107" source="BFoAyvisKUFXEgnlOEMM-12" target="yr6knBJ-R2vz9ehcWOlT-4" edge="1">
          <mxGeometry relative="1" as="geometry">
            <mxPoint x="70" y="337.5" as="targetPoint" />
          </mxGeometry>
        </mxCell>
        <mxCell id="BFoAyvisKUFXEgnlOEMM-20" style="edgeStyle=orthogonalEdgeStyle;rounded=0;orthogonalLoop=1;jettySize=auto;html=1;exitX=0.5;exitY=1;exitDx=0;exitDy=0;entryX=0.5;entryY=0;entryDx=0;entryDy=0;" parent="0pEK2wuluWOF_c6K8Uz9-107" source="BFoAyvisKUFXEgnlOEMM-12" target="yr6knBJ-R2vz9ehcWOlT-6" edge="1">
          <mxGeometry relative="1" as="geometry">
            <mxPoint x="205" y="340" as="targetPoint" />
          </mxGeometry>
        </mxCell>
        <mxCell id="BFoAyvisKUFXEgnlOEMM-21" value="INPUT" style="text;html=1;strokeColor=none;fillColor=none;align=center;verticalAlign=middle;whiteSpace=wrap;rounded=0;" parent="0pEK2wuluWOF_c6K8Uz9-107" vertex="1">
          <mxGeometry width="60" height="30" as="geometry" />
        </mxCell>
        <mxCell id="yr6knBJ-R2vz9ehcWOlT-4" value="ADC값 출력" style="shape=document;whiteSpace=wrap;html=1;boundedLbl=1;fillColor=#b0e3e6;strokeColor=#0e8088;" parent="0pEK2wuluWOF_c6K8Uz9-107" vertex="1">
          <mxGeometry x="30" y="338.75" width="85" height="52.5" as="geometry" />
        </mxCell>
        <mxCell id="yr6knBJ-R2vz9ehcWOlT-6" value="LED값 출력" style="shape=document;whiteSpace=wrap;html=1;boundedLbl=1;fillColor=#b0e3e6;strokeColor=#0e8088;" parent="0pEK2wuluWOF_c6K8Uz9-107" vertex="1">
          <mxGeometry x="170" y="338.75" width="80" height="51.25" as="geometry" />
        </mxCell>
        <mxCell id="BFoAyvisKUFXEgnlOEMM-22" value="" style="group" parent="1" vertex="1" connectable="0">
          <mxGeometry x="-500" y="282.5" width="160" height="270" as="geometry" />
        </mxCell>
        <mxCell id="BFoAyvisKUFXEgnlOEMM-23" value="" style="rounded=0;whiteSpace=wrap;html=1;fillColor=#cdeb8b;strokeColor=#36393d;" parent="BFoAyvisKUFXEgnlOEMM-22" vertex="1">
          <mxGeometry width="160" height="270" as="geometry" />
        </mxCell>
        <mxCell id="BFoAyvisKUFXEgnlOEMM-24" value="Button(GUI)" style="shape=parallelogram;perimeter=parallelogramPerimeter;whiteSpace=wrap;html=1;fixedSize=1;fillColor=#cce5ff;strokeColor=#36393d;" parent="BFoAyvisKUFXEgnlOEMM-22" vertex="1">
          <mxGeometry x="30" y="30" width="100" height="50" as="geometry" />
        </mxCell>
        <mxCell id="BFoAyvisKUFXEgnlOEMM-25" value="데이터 변환" style="rounded=0;whiteSpace=wrap;html=1;fillColor=#f9f7ed;strokeColor=#36393d;" parent="BFoAyvisKUFXEgnlOEMM-22" vertex="1">
          <mxGeometry x="30" y="107.5" width="100" height="50" as="geometry" />
        </mxCell>
        <mxCell id="BFoAyvisKUFXEgnlOEMM-26" style="edgeStyle=orthogonalEdgeStyle;rounded=0;orthogonalLoop=1;jettySize=auto;html=1;exitX=0.5;exitY=1;exitDx=0;exitDy=0;entryX=0.5;entryY=0;entryDx=0;entryDy=0;" parent="BFoAyvisKUFXEgnlOEMM-22" source="BFoAyvisKUFXEgnlOEMM-24" target="BFoAyvisKUFXEgnlOEMM-25" edge="1">
          <mxGeometry relative="1" as="geometry" />
        </mxCell>
        <mxCell id="BFoAyvisKUFXEgnlOEMM-27" value="Send_buff" style="rounded=0;whiteSpace=wrap;html=1;fillColor=#f9f7ed;strokeColor=#36393d;" parent="BFoAyvisKUFXEgnlOEMM-22" vertex="1">
          <mxGeometry x="30" y="185" width="100" height="40" as="geometry" />
        </mxCell>
        <mxCell id="BFoAyvisKUFXEgnlOEMM-28" style="edgeStyle=orthogonalEdgeStyle;rounded=0;orthogonalLoop=1;jettySize=auto;html=1;exitX=0.5;exitY=1;exitDx=0;exitDy=0;entryX=0.5;entryY=0;entryDx=0;entryDy=0;" parent="BFoAyvisKUFXEgnlOEMM-22" source="BFoAyvisKUFXEgnlOEMM-25" target="BFoAyvisKUFXEgnlOEMM-27" edge="1">
          <mxGeometry relative="1" as="geometry" />
        </mxCell>
        <mxCell id="BFoAyvisKUFXEgnlOEMM-29" value="OUTPUT" style="text;html=1;strokeColor=none;fillColor=none;align=center;verticalAlign=middle;whiteSpace=wrap;rounded=0;" parent="BFoAyvisKUFXEgnlOEMM-22" vertex="1">
          <mxGeometry width="60" height="30" as="geometry" />
        </mxCell>
        <mxCell id="0pEK2wuluWOF_c6K8Uz9-5" style="edgeStyle=orthogonalEdgeStyle;rounded=0;orthogonalLoop=1;jettySize=auto;html=1;exitX=1;exitY=0.5;exitDx=0;exitDy=0;entryX=0;entryY=0.5;entryDx=0;entryDy=0;entryPerimeter=0;" parent="1" source="0pEK2wuluWOF_c6K8Uz9-4" target="f1HlEf__6IlxcF7phjeX-3" edge="1">
          <mxGeometry relative="1" as="geometry" />
        </mxCell>
        <mxCell id="0pEK2wuluWOF_c6K8Uz9-6" style="edgeStyle=orthogonalEdgeStyle;rounded=0;orthogonalLoop=1;jettySize=auto;html=1;entryX=1;entryY=0.5;entryDx=0;entryDy=0;entryPerimeter=0;" parent="1" source="0pEK2wuluWOF_c6K8Uz9-4" target="BFoAyvisKUFXEgnlOEMM-8" edge="1">
          <mxGeometry relative="1" as="geometry">
            <mxPoint x="-340" y="-250" as="sourcePoint" />
          </mxGeometry>
        </mxCell>
        <mxCell id="0pEK2wuluWOF_c6K8Uz9-4" value="UART 통신" style="rounded=0;whiteSpace=wrap;html=1;fillColor=#f9f7ed;strokeColor=#36393d;" parent="1" vertex="1">
          <mxGeometry x="-230" y="-280" width="120" height="60" as="geometry" />
        </mxCell>
        <mxCell id="0pEK2wuluWOF_c6K8Uz9-33" value="" style="group" parent="1" vertex="1" connectable="0">
          <mxGeometry x="92.5" y="-90" width="455" height="120" as="geometry" />
        </mxCell>
        <mxCell id="0pEK2wuluWOF_c6K8Uz9-34" value="" style="verticalLabelPosition=bottom;verticalAlign=top;html=1;shape=mxgraph.basic.rect;fillColor2=none;strokeWidth=1;size=20;indent=5;container=0;fillColor=#f5f5f5;strokeColor=#666666;fontColor=#333333;" parent="0pEK2wuluWOF_c6K8Uz9-33" vertex="1">
          <mxGeometry x="2.5" width="455" height="120" as="geometry" />
        </mxCell>
        <mxCell id="0pEK2wuluWOF_c6K8Uz9-35" value="Timer Increase" style="rounded=0;whiteSpace=wrap;html=1;container=0;fillColor=#f9f7ed;strokeColor=#36393d;" parent="0pEK2wuluWOF_c6K8Uz9-33" vertex="1">
          <mxGeometry x="190" y="50" width="120" height="40" as="geometry" />
        </mxCell>
        <mxCell id="0pEK2wuluWOF_c6K8Uz9-36" style="edgeStyle=orthogonalEdgeStyle;rounded=0;orthogonalLoop=1;jettySize=auto;html=1;exitX=0.5;exitY=0;exitDx=0;exitDy=0;entryX=0.5;entryY=0;entryDx=0;entryDy=0;" parent="0pEK2wuluWOF_c6K8Uz9-33" source="0pEK2wuluWOF_c6K8Uz9-38" target="0pEK2wuluWOF_c6K8Uz9-35" edge="1">
          <mxGeometry relative="1" as="geometry">
            <Array as="points">
              <mxPoint x="380" y="30" />
              <mxPoint x="250" y="30" />
            </Array>
          </mxGeometry>
        </mxCell>
        <mxCell id="0pEK2wuluWOF_c6K8Uz9-37" value="NO" style="edgeLabel;html=1;align=center;verticalAlign=middle;resizable=0;points=[];container=0;labelBackgroundColor=#F5F5F5;" parent="0pEK2wuluWOF_c6K8Uz9-36" vertex="1" connectable="0">
          <mxGeometry x="-0.2444" y="-3" relative="1" as="geometry">
            <mxPoint x="-22" y="3" as="offset" />
          </mxGeometry>
        </mxCell>
        <mxCell id="0pEK2wuluWOF_c6K8Uz9-38" value="Timer Overflow?" style="rhombus;whiteSpace=wrap;html=1;container=0;fillColor=#f8cecc;strokeColor=#b85450;" parent="0pEK2wuluWOF_c6K8Uz9-33" vertex="1">
          <mxGeometry x="340" y="35" width="80" height="70" as="geometry" />
        </mxCell>
        <mxCell id="0pEK2wuluWOF_c6K8Uz9-39" style="edgeStyle=orthogonalEdgeStyle;rounded=0;orthogonalLoop=1;jettySize=auto;html=1;exitX=1;exitY=0.5;exitDx=0;exitDy=0;entryX=0;entryY=0.5;entryDx=0;entryDy=0;" parent="0pEK2wuluWOF_c6K8Uz9-33" source="0pEK2wuluWOF_c6K8Uz9-35" target="0pEK2wuluWOF_c6K8Uz9-38" edge="1">
          <mxGeometry relative="1" as="geometry" />
        </mxCell>
        <mxCell id="0pEK2wuluWOF_c6K8Uz9-40" style="edgeStyle=orthogonalEdgeStyle;rounded=0;orthogonalLoop=1;jettySize=auto;html=1;exitX=1;exitY=0.5;exitDx=0;exitDy=0;entryX=0;entryY=0.5;entryDx=0;entryDy=0;" parent="0pEK2wuluWOF_c6K8Uz9-33" source="0pEK2wuluWOF_c6K8Uz9-41" target="0pEK2wuluWOF_c6K8Uz9-35" edge="1">
          <mxGeometry relative="1" as="geometry" />
        </mxCell>
        <mxCell id="0pEK2wuluWOF_c6K8Uz9-41" value="Timer Interrupt" style="rounded=0;whiteSpace=wrap;html=1;container=0;fillColor=#f9f7ed;strokeColor=#36393d;" parent="0pEK2wuluWOF_c6K8Uz9-33" vertex="1">
          <mxGeometry x="30" y="50" width="120" height="40" as="geometry" />
        </mxCell>
        <mxCell id="0pEK2wuluWOF_c6K8Uz9-42" value="MsTimer" style="text;html=1;strokeColor=none;fillColor=none;align=center;verticalAlign=middle;whiteSpace=wrap;rounded=0;container=0;" parent="0pEK2wuluWOF_c6K8Uz9-33" vertex="1">
          <mxGeometry x="2.5" width="50" height="30" as="geometry" />
        </mxCell>
        <mxCell id="0pEK2wuluWOF_c6K8Uz9-72" value="" style="group" parent="1" vertex="1" connectable="0">
          <mxGeometry x="1291" y="222.04" width="279" height="380" as="geometry" />
        </mxCell>
        <mxCell id="0pEK2wuluWOF_c6K8Uz9-73" value="" style="rounded=0;whiteSpace=wrap;html=1;fillColor=#ffe6cc;strokeColor=#d79b00;" parent="0pEK2wuluWOF_c6K8Uz9-72" vertex="1">
          <mxGeometry y="-70" width="279" height="450" as="geometry" />
        </mxCell>
        <mxCell id="0pEK2wuluWOF_c6K8Uz9-74" value="데이터 변환" style="rounded=0;whiteSpace=wrap;html=1;fillColor=#f9f7ed;strokeColor=#36393d;" parent="0pEK2wuluWOF_c6K8Uz9-72" vertex="1">
          <mxGeometry x="159" y="125" width="110" height="45" as="geometry" />
        </mxCell>
        <mxCell id="0pEK2wuluWOF_c6K8Uz9-75" value="Union" style="rounded=0;whiteSpace=wrap;html=1;fillColor=#f9f7ed;strokeColor=#36393d;" parent="0pEK2wuluWOF_c6K8Uz9-72" vertex="1">
          <mxGeometry x="13" y="125" width="100" height="45" as="geometry" />
        </mxCell>
        <mxCell id="0pEK2wuluWOF_c6K8Uz9-76" value="MODBUS CRC-16&amp;nbsp;&lt;br&gt;프로토콜 형태로&lt;br&gt;데이터 변환" style="rounded=0;whiteSpace=wrap;html=1;fillColor=#f9f7ed;strokeColor=#36393d;" parent="0pEK2wuluWOF_c6K8Uz9-72" vertex="1">
          <mxGeometry x="79" y="230" width="120" height="60" as="geometry" />
        </mxCell>
        <mxCell id="0pEK2wuluWOF_c6K8Uz9-77" style="edgeStyle=orthogonalEdgeStyle;rounded=0;orthogonalLoop=1;jettySize=auto;html=1;exitX=0.5;exitY=1;exitDx=0;exitDy=0;entryX=0.5;entryY=0;entryDx=0;entryDy=0;" parent="0pEK2wuluWOF_c6K8Uz9-72" source="0pEK2wuluWOF_c6K8Uz9-74" target="0pEK2wuluWOF_c6K8Uz9-76" edge="1">
          <mxGeometry relative="1" as="geometry" />
        </mxCell>
        <mxCell id="0pEK2wuluWOF_c6K8Uz9-78" style="edgeStyle=orthogonalEdgeStyle;rounded=0;orthogonalLoop=1;jettySize=auto;html=1;exitX=0.5;exitY=1;exitDx=0;exitDy=0;entryX=0.5;entryY=0;entryDx=0;entryDy=0;" parent="0pEK2wuluWOF_c6K8Uz9-72" source="0pEK2wuluWOF_c6K8Uz9-75" target="0pEK2wuluWOF_c6K8Uz9-76" edge="1">
          <mxGeometry relative="1" as="geometry" />
        </mxCell>
        <mxCell id="0pEK2wuluWOF_c6K8Uz9-79" value="I2C_buff" style="rounded=0;whiteSpace=wrap;html=1;fillColor=#f9f7ed;strokeColor=#36393d;" parent="0pEK2wuluWOF_c6K8Uz9-72" vertex="1">
          <mxGeometry x="94" y="322.5" width="90" height="35" as="geometry" />
        </mxCell>
        <mxCell id="0pEK2wuluWOF_c6K8Uz9-80" style="edgeStyle=orthogonalEdgeStyle;rounded=0;orthogonalLoop=1;jettySize=auto;html=1;exitX=0.5;exitY=1;exitDx=0;exitDy=0;entryX=0.5;entryY=0;entryDx=0;entryDy=0;" parent="0pEK2wuluWOF_c6K8Uz9-72" source="0pEK2wuluWOF_c6K8Uz9-76" target="0pEK2wuluWOF_c6K8Uz9-79" edge="1">
          <mxGeometry relative="1" as="geometry" />
        </mxCell>
        <mxCell id="0pEK2wuluWOF_c6K8Uz9-86" style="edgeStyle=orthogonalEdgeStyle;rounded=0;orthogonalLoop=1;jettySize=auto;html=1;entryX=0.5;entryY=0;entryDx=0;entryDy=0;" parent="0pEK2wuluWOF_c6K8Uz9-72" source="0pEK2wuluWOF_c6K8Uz9-83" target="0pEK2wuluWOF_c6K8Uz9-75" edge="1">
          <mxGeometry relative="1" as="geometry">
            <mxPoint x="64.00000000000045" y="77.5" as="sourcePoint" />
          </mxGeometry>
        </mxCell>
        <mxCell id="0pEK2wuluWOF_c6K8Uz9-87" style="edgeStyle=orthogonalEdgeStyle;rounded=0;orthogonalLoop=1;jettySize=auto;html=1;entryX=0.5;entryY=0;entryDx=0;entryDy=0;" parent="0pEK2wuluWOF_c6K8Uz9-72" source="0pEK2wuluWOF_c6K8Uz9-84" target="0pEK2wuluWOF_c6K8Uz9-74" edge="1">
          <mxGeometry relative="1" as="geometry">
            <mxPoint x="214" y="77.5" as="sourcePoint" />
          </mxGeometry>
        </mxCell>
        <mxCell id="0pEK2wuluWOF_c6K8Uz9-88" value="INPUT" style="text;html=1;strokeColor=none;fillColor=none;align=center;verticalAlign=middle;whiteSpace=wrap;rounded=0;" parent="0pEK2wuluWOF_c6K8Uz9-72" vertex="1">
          <mxGeometry y="-70" width="70" height="30" as="geometry" />
        </mxCell>
        <mxCell id="0pEK2wuluWOF_c6K8Uz9-83" value="ADC" style="shape=parallelogram;perimeter=parallelogramPerimeter;whiteSpace=wrap;html=1;fixedSize=1;fillColor=#cce5ff;strokeColor=#36393d;container=0;" parent="0pEK2wuluWOF_c6K8Uz9-72" vertex="1">
          <mxGeometry x="39" y="-15" width="90" height="60" as="geometry" />
        </mxCell>
        <mxCell id="0pEK2wuluWOF_c6K8Uz9-84" value="Switch" style="shape=parallelogram;perimeter=parallelogramPerimeter;whiteSpace=wrap;html=1;fixedSize=1;fillColor=#cce5ff;strokeColor=#36393d;container=0;" parent="0pEK2wuluWOF_c6K8Uz9-72" vertex="1">
          <mxGeometry x="149" y="-15" width="90" height="60" as="geometry" />
        </mxCell>
        <mxCell id="0pEK2wuluWOF_c6K8Uz9-112" value="" style="endArrow=classic;html=1;rounded=0;strokeWidth=2;exitX=0.087;exitY=0.983;exitDx=0;exitDy=0;exitPerimeter=0;entryX=1;entryY=0.5;entryDx=0;entryDy=0;strokeColor=#3333FF;" parent="1" source="f1HlEf__6IlxcF7phjeX-10" target="BFoAyvisKUFXEgnlOEMM-11" edge="1">
          <mxGeometry width="50" height="50" relative="1" as="geometry">
            <mxPoint x="30" y="480" as="sourcePoint" />
            <mxPoint x="80" y="430" as="targetPoint" />
            <Array as="points">
              <mxPoint x="106" y="690" />
              <mxPoint x="-560" y="690" />
              <mxPoint x="-560" y="318" />
            </Array>
          </mxGeometry>
        </mxCell>
        <mxCell id="0pEK2wuluWOF_c6K8Uz9-114" style="edgeStyle=orthogonalEdgeStyle;rounded=0;orthogonalLoop=1;jettySize=auto;html=1;exitX=1;exitY=0.5;exitDx=0;exitDy=0;strokeWidth=2;strokeColor=#FF0000;" parent="1" source="BFoAyvisKUFXEgnlOEMM-27" edge="1">
          <mxGeometry relative="1" as="geometry">
            <mxPoint x="-130" y="320" as="targetPoint" />
            <Array as="points">
              <mxPoint x="-370" y="490" />
              <mxPoint x="-200" y="490" />
              <mxPoint x="-200" y="320" />
            </Array>
          </mxGeometry>
        </mxCell>
        <mxCell id="0pEK2wuluWOF_c6K8Uz9-126" value="" style="group" parent="1" vertex="1" connectable="0">
          <mxGeometry x="390" y="182.04" width="279" height="497.96" as="geometry" />
        </mxCell>
        <mxCell id="f1HlEf__6IlxcF7phjeX-39" value="" style="group" parent="0pEK2wuluWOF_c6K8Uz9-126" vertex="1" connectable="0">
          <mxGeometry y="51.577561908471964" width="279" height="446.382438091528" as="geometry" />
        </mxCell>
        <mxCell id="f1HlEf__6IlxcF7phjeX-32" value="" style="rounded=0;whiteSpace=wrap;html=1;fillColor=#FFE6CC;strokeColor=#d79b00;" parent="f1HlEf__6IlxcF7phjeX-39" vertex="1">
          <mxGeometry y="-72.2048392637385" width="279" height="518.5872773552665" as="geometry" />
        </mxCell>
        <mxCell id="1glshwVwyARpWJLmnn8l-2" value="16진수 변환" style="rounded=0;whiteSpace=wrap;html=1;fillColor=#f9f7ed;strokeColor=#36393d;" parent="f1HlEf__6IlxcF7phjeX-39" vertex="1">
          <mxGeometry x="159" y="95.19849463031987" width="101" height="43.67604166482218" as="geometry" />
        </mxCell>
        <mxCell id="1glshwVwyARpWJLmnn8l-4" value="Union" style="rounded=0;whiteSpace=wrap;html=1;fillColor=#f9f7ed;strokeColor=#36393d;" parent="f1HlEf__6IlxcF7phjeX-39" vertex="1">
          <mxGeometry x="20" y="95.19849463031987" width="93" height="43.67604166482218" as="geometry" />
        </mxCell>
        <mxCell id="1glshwVwyARpWJLmnn8l-5" value="MODBUS CRC-16&amp;nbsp;&lt;br&gt;수행" style="rounded=0;whiteSpace=wrap;html=1;fillColor=#f9f7ed;strokeColor=#36393d;" parent="f1HlEf__6IlxcF7phjeX-39" vertex="1">
          <mxGeometry x="78.5" y="164.62584316815554" width="121" height="52.792163011624716" as="geometry" />
        </mxCell>
        <mxCell id="1glshwVwyARpWJLmnn8l-19" style="edgeStyle=orthogonalEdgeStyle;rounded=0;orthogonalLoop=1;jettySize=auto;html=1;exitX=0.5;exitY=1;exitDx=0;exitDy=0;entryX=0.5;entryY=0;entryDx=0;entryDy=0;" parent="f1HlEf__6IlxcF7phjeX-39" source="1glshwVwyARpWJLmnn8l-2" target="1glshwVwyARpWJLmnn8l-5" edge="1">
          <mxGeometry relative="1" as="geometry">
            <Array as="points">
              <mxPoint x="210" y="144.82630213636241" />
              <mxPoint x="139" y="144.82630213636241" />
            </Array>
          </mxGeometry>
        </mxCell>
        <mxCell id="1glshwVwyARpWJLmnn8l-18" style="edgeStyle=orthogonalEdgeStyle;rounded=0;orthogonalLoop=1;jettySize=auto;html=1;exitX=0.5;exitY=1;exitDx=0;exitDy=0;entryX=0.5;entryY=0;entryDx=0;entryDy=0;" parent="f1HlEf__6IlxcF7phjeX-39" source="1glshwVwyARpWJLmnn8l-4" target="1glshwVwyARpWJLmnn8l-5" edge="1">
          <mxGeometry relative="1" as="geometry">
            <Array as="points">
              <mxPoint x="67" y="144.82630213636241" />
              <mxPoint x="139" y="144.82630213636241" />
            </Array>
          </mxGeometry>
        </mxCell>
        <mxCell id="0pEK2wuluWOF_c6K8Uz9-154" style="edgeStyle=orthogonalEdgeStyle;rounded=0;orthogonalLoop=1;jettySize=auto;html=1;exitX=0.5;exitY=1;exitDx=0;exitDy=0;entryX=0.5;entryY=0;entryDx=0;entryDy=0;strokeWidth=1;" parent="f1HlEf__6IlxcF7phjeX-39" source="1glshwVwyARpWJLmnn8l-22" target="0pEK2wuluWOF_c6K8Uz9-151" edge="1">
          <mxGeometry relative="1" as="geometry" />
        </mxCell>
        <mxCell id="1glshwVwyARpWJLmnn8l-22" value="TX_buff" style="rounded=0;whiteSpace=wrap;html=1;fillColor=#f9f7ed;strokeColor=#36393d;" parent="f1HlEf__6IlxcF7phjeX-39" vertex="1">
          <mxGeometry x="94.5" y="243.98646845921607" width="90" height="36.10429333593037" as="geometry" />
        </mxCell>
        <mxCell id="1glshwVwyARpWJLmnn8l-23" style="edgeStyle=orthogonalEdgeStyle;rounded=0;orthogonalLoop=1;jettySize=auto;html=1;exitX=0.5;exitY=1;exitDx=0;exitDy=0;entryX=0.5;entryY=0;entryDx=0;entryDy=0;" parent="f1HlEf__6IlxcF7phjeX-39" source="1glshwVwyARpWJLmnn8l-5" target="1glshwVwyARpWJLmnn8l-22" edge="1">
          <mxGeometry relative="1" as="geometry" />
        </mxCell>
        <mxCell id="1glshwVwyARpWJLmnn8l-17" style="edgeStyle=orthogonalEdgeStyle;rounded=0;orthogonalLoop=1;jettySize=auto;html=1;entryX=0.5;entryY=0;entryDx=0;entryDy=0;" parent="f1HlEf__6IlxcF7phjeX-39" source="0pEK2wuluWOF_c6K8Uz9-57" target="1glshwVwyARpWJLmnn8l-4" edge="1">
          <mxGeometry relative="1" as="geometry">
            <mxPoint x="64.00000000000045" y="79.94522095813153" as="sourcePoint" />
          </mxGeometry>
        </mxCell>
        <mxCell id="1glshwVwyARpWJLmnn8l-16" style="edgeStyle=orthogonalEdgeStyle;rounded=0;orthogonalLoop=1;jettySize=auto;html=1;entryX=0.5;entryY=0;entryDx=0;entryDy=0;" parent="f1HlEf__6IlxcF7phjeX-39" source="0pEK2wuluWOF_c6K8Uz9-58" target="1glshwVwyARpWJLmnn8l-2" edge="1">
          <mxGeometry relative="1" as="geometry">
            <mxPoint x="214" y="79.94522095813153" as="sourcePoint" />
          </mxGeometry>
        </mxCell>
        <mxCell id="f1HlEf__6IlxcF7phjeX-35" value="I2C Receive" style="text;html=1;strokeColor=none;fillColor=none;align=center;verticalAlign=middle;whiteSpace=wrap;rounded=0;" parent="f1HlEf__6IlxcF7phjeX-39" vertex="1">
          <mxGeometry y="-72.20858667186074" width="70" height="30.946537145083177" as="geometry" />
        </mxCell>
        <mxCell id="0pEK2wuluWOF_c6K8Uz9-152" style="edgeStyle=orthogonalEdgeStyle;rounded=0;orthogonalLoop=1;jettySize=auto;html=1;exitX=1;exitY=0.5;exitDx=0;exitDy=0;entryX=0.999;entryY=0.475;entryDx=0;entryDy=0;entryPerimeter=0;strokeWidth=1;" parent="f1HlEf__6IlxcF7phjeX-39" source="0pEK2wuluWOF_c6K8Uz9-151" target="0pEK2wuluWOF_c6K8Uz9-56" edge="1">
          <mxGeometry relative="1" as="geometry">
            <Array as="points">
              <mxPoint x="270" y="329" />
              <mxPoint x="270" y="33" />
            </Array>
          </mxGeometry>
        </mxCell>
        <mxCell id="0pEK2wuluWOF_c6K8Uz9-153" value="NO" style="edgeLabel;html=1;align=center;verticalAlign=middle;resizable=0;points=[];labelBackgroundColor=#FFE6CC;" parent="0pEK2wuluWOF_c6K8Uz9-152" vertex="1" connectable="0">
          <mxGeometry x="-0.6872" relative="1" as="geometry">
            <mxPoint as="offset" />
          </mxGeometry>
        </mxCell>
        <mxCell id="0pEK2wuluWOF_c6K8Uz9-151" value="END" style="rhombus;whiteSpace=wrap;html=1;fillColor=#ffcccc;strokeColor=#36393d;" parent="f1HlEf__6IlxcF7phjeX-39" vertex="1">
          <mxGeometry x="109.08" y="303.5001590275256" width="69" height="51.57756190847196" as="geometry" />
        </mxCell>
        <mxCell id="0pEK2wuluWOF_c6K8Uz9-131" value="Interrupt enable" style="rounded=0;whiteSpace=wrap;html=1;fillColor=#f9f7ed;strokeColor=#36393d;" parent="f1HlEf__6IlxcF7phjeX-39" vertex="1">
          <mxGeometry x="50" y="402.69647681697046" width="87" height="33.766351539190254" as="geometry" />
        </mxCell>
        <mxCell id="0pEK2wuluWOF_c6K8Uz9-55" value="" style="group" parent="f1HlEf__6IlxcF7phjeX-39" vertex="1" connectable="0">
          <mxGeometry x="37.5" y="8.810383298800497e-16" width="204" height="68.64369936874165" as="geometry" />
        </mxCell>
        <mxCell id="0pEK2wuluWOF_c6K8Uz9-56" value="" style="verticalLabelPosition=bottom;verticalAlign=top;html=1;shape=mxgraph.basic.rect;fillColor2=none;strokeWidth=1;size=20;indent=5;container=0;fillColor=#dae8fc;strokeColor=#6c8ebf;" parent="0pEK2wuluWOF_c6K8Uz9-55" vertex="1">
          <mxGeometry x="8.16" width="195.84000000000003" height="68.64369936874165" as="geometry" />
        </mxCell>
        <mxCell id="0pEK2wuluWOF_c6K8Uz9-57" value="ADC" style="shape=parallelogram;perimeter=parallelogramPerimeter;whiteSpace=wrap;html=1;fixedSize=1;fillColor=#cce5ff;strokeColor=#36393d;container=0;" parent="0pEK2wuluWOF_c6K8Uz9-55" vertex="1">
          <mxGeometry x="24.480000000000004" y="17.160924842185413" width="73.44000000000001" height="41.18621962124498" as="geometry" />
        </mxCell>
        <mxCell id="0pEK2wuluWOF_c6K8Uz9-58" value="Switch" style="shape=parallelogram;perimeter=parallelogramPerimeter;whiteSpace=wrap;html=1;fixedSize=1;fillColor=#cce5ff;strokeColor=#36393d;container=0;" parent="0pEK2wuluWOF_c6K8Uz9-55" vertex="1">
          <mxGeometry x="114.24000000000001" y="17.160924842185413" width="73.44000000000001" height="41.18621962124498" as="geometry" />
        </mxCell>
        <mxCell id="0pEK2wuluWOF_c6K8Uz9-59" value="Receive" style="text;html=1;strokeColor=none;fillColor=none;align=center;verticalAlign=middle;whiteSpace=wrap;rounded=0;container=0;" parent="0pEK2wuluWOF_c6K8Uz9-55" vertex="1">
          <mxGeometry x="8.16" width="48.96000000000001" height="20.59310981062249" as="geometry" />
        </mxCell>
        <mxCell id="yr6knBJ-R2vz9ehcWOlT-36" value="watchdog reset" style="rounded=0;whiteSpace=wrap;html=1;fillColor=#f9f7ed;strokeColor=#36393d;" parent="f1HlEf__6IlxcF7phjeX-39" vertex="1">
          <mxGeometry x="159" y="402.69647681697046" width="91" height="33.766351539190254" as="geometry" />
        </mxCell>
        <mxCell id="yr6knBJ-R2vz9ehcWOlT-49" value="" style="endArrow=classic;startArrow=classic;html=1;rounded=0;entryX=0.5;entryY=0;entryDx=0;entryDy=0;exitX=0.5;exitY=0;exitDx=0;exitDy=0;" parent="f1HlEf__6IlxcF7phjeX-39" source="0pEK2wuluWOF_c6K8Uz9-131" target="yr6knBJ-R2vz9ehcWOlT-36" edge="1">
          <mxGeometry width="50" height="50" relative="1" as="geometry">
            <mxPoint x="-390" y="96.38243809152806" as="sourcePoint" />
            <mxPoint x="-340" y="46.38243809152806" as="targetPoint" />
            <Array as="points">
              <mxPoint x="94" y="386.38243809152806" />
              <mxPoint x="205" y="386.38243809152806" />
            </Array>
          </mxGeometry>
        </mxCell>
        <mxCell id="0pEK2wuluWOF_c6K8Uz9-91" style="edgeStyle=orthogonalEdgeStyle;rounded=0;orthogonalLoop=1;jettySize=auto;html=1;exitX=0.5;exitY=1;exitDx=0;exitDy=0;entryX=0.48;entryY=0.039;entryDx=0;entryDy=0;entryPerimeter=0;strokeWidth=1;" parent="0pEK2wuluWOF_c6K8Uz9-126" source="0pEK2wuluWOF_c6K8Uz9-90" target="0pEK2wuluWOF_c6K8Uz9-56" edge="1">
          <mxGeometry relative="1" as="geometry" />
        </mxCell>
        <mxCell id="0pEK2wuluWOF_c6K8Uz9-90" value="I2C Receive" style="rounded=0;whiteSpace=wrap;html=1;fillColor=#f9f7ed;strokeColor=#36393d;" parent="0pEK2wuluWOF_c6K8Uz9-126" vertex="1">
          <mxGeometry x="84.5" width="110" height="41.262049526777574" as="geometry" />
        </mxCell>
        <mxCell id="QdECZXzs4moKlUNYnFSm-1" style="edgeStyle=orthogonalEdgeStyle;rounded=0;orthogonalLoop=1;jettySize=auto;html=1;exitX=0;exitY=0.5;exitDx=0;exitDy=0;entryX=0;entryY=0.5;entryDx=0;entryDy=0;" parent="0pEK2wuluWOF_c6K8Uz9-126" source="0pEK2wuluWOF_c6K8Uz9-131" target="0pEK2wuluWOF_c6K8Uz9-90" edge="1">
          <mxGeometry relative="1" as="geometry">
            <Array as="points">
              <mxPoint x="50" y="474.1573453505565" />
              <mxPoint x="10" y="474.1573453505565" />
              <mxPoint x="10" y="20.83118044427131" />
            </Array>
          </mxGeometry>
        </mxCell>
        <mxCell id="0pEK2wuluWOF_c6K8Uz9-127" value="" style="group" parent="1" vertex="1" connectable="0">
          <mxGeometry x="670" y="160" width="240" height="520" as="geometry" />
        </mxCell>
        <mxCell id="f1HlEf__6IlxcF7phjeX-38" value="" style="group;fillColor=#ffcccc;strokeColor=#36393d;" parent="0pEK2wuluWOF_c6K8Uz9-127" vertex="1" connectable="0">
          <mxGeometry width="240" height="520.0000000000001" as="geometry" />
        </mxCell>
        <mxCell id="f1HlEf__6IlxcF7phjeX-36" value="" style="rounded=0;whiteSpace=wrap;html=1;fillColor=#CDEB8B;strokeColor=#36393d;" parent="f1HlEf__6IlxcF7phjeX-38" vertex="1">
          <mxGeometry width="240" height="520.0000000000001" as="geometry" />
        </mxCell>
        <mxCell id="1glshwVwyARpWJLmnn8l-20" value="MODBUS CRC-16&lt;br&gt;사용" style="rounded=0;whiteSpace=wrap;html=1;fillColor=#f9f7ed;strokeColor=#36393d;" parent="f1HlEf__6IlxcF7phjeX-38" vertex="1">
          <mxGeometry x="49.85" y="140" width="122" height="44.84" as="geometry" />
        </mxCell>
        <mxCell id="1glshwVwyARpWJLmnn8l-27" style="edgeStyle=orthogonalEdgeStyle;rounded=0;orthogonalLoop=1;jettySize=auto;html=1;exitX=0.5;exitY=1;exitDx=0;exitDy=0;entryX=0.5;entryY=0;entryDx=0;entryDy=0;" parent="f1HlEf__6IlxcF7phjeX-38" source="1glshwVwyARpWJLmnn8l-21" edge="1">
          <mxGeometry relative="1" as="geometry">
            <mxPoint x="110.85714285714285" y="82.72727272727302" as="targetPoint" />
          </mxGeometry>
        </mxCell>
        <mxCell id="0pEK2wuluWOF_c6K8Uz9-134" style="edgeStyle=orthogonalEdgeStyle;rounded=0;orthogonalLoop=1;jettySize=auto;html=1;exitX=0.5;exitY=1;exitDx=0;exitDy=0;entryX=0.479;entryY=-0.018;entryDx=0;entryDy=0;entryPerimeter=0;strokeWidth=1;" parent="f1HlEf__6IlxcF7phjeX-38" source="1glshwVwyARpWJLmnn8l-24" target="0pEK2wuluWOF_c6K8Uz9-93" edge="1">
          <mxGeometry relative="1" as="geometry" />
        </mxCell>
        <mxCell id="1glshwVwyARpWJLmnn8l-24" value="Data 10진수 변환" style="rounded=0;whiteSpace=wrap;html=1;fillColor=#f9f7ed;strokeColor=#36393d;" parent="f1HlEf__6IlxcF7phjeX-38" vertex="1">
          <mxGeometry x="58.57" y="210" width="104.57" height="43.64" as="geometry" />
        </mxCell>
        <mxCell id="1glshwVwyARpWJLmnn8l-28" style="edgeStyle=orthogonalEdgeStyle;rounded=0;orthogonalLoop=1;jettySize=auto;html=1;exitX=0.5;exitY=1;exitDx=0;exitDy=0;entryX=0.5;entryY=0;entryDx=0;entryDy=0;" parent="f1HlEf__6IlxcF7phjeX-38" source="1glshwVwyARpWJLmnn8l-20" target="1glshwVwyARpWJLmnn8l-24" edge="1">
          <mxGeometry relative="1" as="geometry" />
        </mxCell>
        <mxCell id="f1HlEf__6IlxcF7phjeX-37" value="I2C Send" style="text;html=1;strokeColor=none;fillColor=none;align=center;verticalAlign=middle;whiteSpace=wrap;rounded=0;" parent="f1HlEf__6IlxcF7phjeX-38" vertex="1">
          <mxGeometry width="68.57142857142857" height="34.54545454545455" as="geometry" />
        </mxCell>
        <mxCell id="yr6knBJ-R2vz9ehcWOlT-32" style="edgeStyle=orthogonalEdgeStyle;rounded=0;orthogonalLoop=1;jettySize=auto;html=1;exitX=0.5;exitY=1;exitDx=0;exitDy=0;entryX=0.5;entryY=0;entryDx=0;entryDy=0;" parent="f1HlEf__6IlxcF7phjeX-38" source="0pEK2wuluWOF_c6K8Uz9-135" target="0pEK2wuluWOF_c6K8Uz9-159" edge="1">
          <mxGeometry relative="1" as="geometry">
            <mxPoint x="110" y="610" as="targetPoint" />
          </mxGeometry>
        </mxCell>
        <mxCell id="yr6knBJ-R2vz9ehcWOlT-34" value="&lt;span style=&quot;background-color: rgb(205, 235, 139);&quot;&gt;YES&lt;/span&gt;" style="edgeLabel;html=1;align=center;verticalAlign=middle;resizable=0;points=[];" parent="yr6knBJ-R2vz9ehcWOlT-32" vertex="1" connectable="0">
          <mxGeometry x="-0.8057" y="-3" relative="1" as="geometry">
            <mxPoint x="3" y="5" as="offset" />
          </mxGeometry>
        </mxCell>
        <mxCell id="0pEK2wuluWOF_c6K8Uz9-135" value="END" style="rhombus;whiteSpace=wrap;html=1;fillColor=#ffcccc;strokeColor=#36393d;" parent="f1HlEf__6IlxcF7phjeX-38" vertex="1">
          <mxGeometry x="73.57000000000001" y="380.00363636363636" width="80" height="59.0909090909091" as="geometry" />
        </mxCell>
        <mxCell id="0pEK2wuluWOF_c6K8Uz9-164" style="edgeStyle=orthogonalEdgeStyle;rounded=0;orthogonalLoop=1;jettySize=auto;html=1;exitX=0.5;exitY=1;exitDx=0;exitDy=0;entryX=0.5;entryY=0;entryDx=0;entryDy=0;strokeWidth=1;" parent="f1HlEf__6IlxcF7phjeX-38" target="1glshwVwyARpWJLmnn8l-20" edge="1">
          <mxGeometry relative="1" as="geometry">
            <mxPoint x="109.71000000000004" y="108.23000000000002" as="sourcePoint" />
          </mxGeometry>
        </mxCell>
        <mxCell id="QdECZXzs4moKlUNYnFSm-3" style="edgeStyle=orthogonalEdgeStyle;rounded=0;orthogonalLoop=1;jettySize=auto;html=1;entryX=0.5;entryY=0;entryDx=0;entryDy=0;" parent="f1HlEf__6IlxcF7phjeX-38" source="0pEK2wuluWOF_c6K8Uz9-93" target="0pEK2wuluWOF_c6K8Uz9-135" edge="1">
          <mxGeometry relative="1" as="geometry" />
        </mxCell>
        <mxCell id="0pEK2wuluWOF_c6K8Uz9-162" style="edgeStyle=orthogonalEdgeStyle;rounded=0;orthogonalLoop=1;jettySize=auto;html=1;exitX=1;exitY=0.5;exitDx=0;exitDy=0;entryX=1.001;entryY=0.715;entryDx=0;entryDy=0;strokeWidth=1;entryPerimeter=0;" parent="f1HlEf__6IlxcF7phjeX-38" source="0pEK2wuluWOF_c6K8Uz9-135" target="0pEK2wuluWOF_c6K8Uz9-93" edge="1">
          <mxGeometry relative="1" as="geometry">
            <Array as="points">
              <mxPoint x="206" y="410" />
              <mxPoint x="206" y="332" />
            </Array>
          </mxGeometry>
        </mxCell>
        <mxCell id="0pEK2wuluWOF_c6K8Uz9-166" value="NO" style="edgeLabel;html=1;align=center;verticalAlign=middle;resizable=0;points=[];labelBackgroundColor=#CDEB8B;" parent="0pEK2wuluWOF_c6K8Uz9-162" vertex="1" connectable="0">
          <mxGeometry x="-0.8163" y="-2" relative="1" as="geometry">
            <mxPoint x="-2" y="-33" as="offset" />
          </mxGeometry>
        </mxCell>
        <mxCell id="1glshwVwyARpWJLmnn8l-21" value="I2C Send" style="rounded=0;whiteSpace=wrap;html=1;fillColor=#f9f7ed;strokeColor=#36393d;" parent="f1HlEf__6IlxcF7phjeX-38" vertex="1">
          <mxGeometry x="65.86" y="20" width="87.71" height="32.05" as="geometry" />
        </mxCell>
        <mxCell id="yr6knBJ-R2vz9ehcWOlT-26" value="" style="group" parent="f1HlEf__6IlxcF7phjeX-38" vertex="1" connectable="0">
          <mxGeometry x="51.34571428571434" y="270.0027272727273" width="124.51" height="82.73" as="geometry" />
        </mxCell>
        <mxCell id="0pEK2wuluWOF_c6K8Uz9-93" value="" style="verticalLabelPosition=bottom;verticalAlign=top;html=1;shape=mxgraph.basic.rect;fillColor2=none;strokeWidth=1;size=20;indent=5;container=0;fillColor=#dae8fc;strokeColor=#6c8ebf;" parent="yr6knBJ-R2vz9ehcWOlT-26" vertex="1">
          <mxGeometry y="10" width="124.51" height="72.73" as="geometry" />
        </mxCell>
        <mxCell id="0pEK2wuluWOF_c6K8Uz9-95" value="LED" style="shape=parallelogram;perimeter=parallelogramPerimeter;whiteSpace=wrap;html=1;fixedSize=1;fillColor=#cce5ff;strokeColor=#36393d;container=0;" parent="yr6knBJ-R2vz9ehcWOlT-26" vertex="1">
          <mxGeometry x="21.93857142857142" y="20.681818181818183" width="91.42857142857144" height="45.5" as="geometry" />
        </mxCell>
        <mxCell id="0pEK2wuluWOF_c6K8Uz9-96" value="Send" style="text;html=1;strokeColor=none;fillColor=none;align=center;verticalAlign=middle;whiteSpace=wrap;rounded=0;container=0;" parent="yr6knBJ-R2vz9ehcWOlT-26" vertex="1">
          <mxGeometry x="1.5671428571428585" y="5" width="32.91428571428571" height="24.81818181818182" as="geometry" />
        </mxCell>
        <mxCell id="0pEK2wuluWOF_c6K8Uz9-159" value="Interrupt enable" style="rounded=0;whiteSpace=wrap;html=1;fillColor=#f9f7ed;strokeColor=#36393d;" parent="f1HlEf__6IlxcF7phjeX-38" vertex="1">
          <mxGeometry x="56.070000000000014" y="470" width="115" height="40" as="geometry" />
        </mxCell>
        <mxCell id="QdECZXzs4moKlUNYnFSm-2" style="edgeStyle=orthogonalEdgeStyle;rounded=0;orthogonalLoop=1;jettySize=auto;html=1;exitX=1;exitY=0.5;exitDx=0;exitDy=0;entryX=1;entryY=0.5;entryDx=0;entryDy=0;" parent="f1HlEf__6IlxcF7phjeX-38" source="0pEK2wuluWOF_c6K8Uz9-159" target="1glshwVwyARpWJLmnn8l-21" edge="1">
          <mxGeometry relative="1" as="geometry">
            <mxPoint x="168" y="72.03999999999999" as="targetPoint" />
            <Array as="points">
              <mxPoint x="220" y="490" />
              <mxPoint x="220" y="36" />
            </Array>
          </mxGeometry>
        </mxCell>
        <mxCell id="RJe6Ebz1gldGJF1w0rcR-5" value="I2C Send_buff" style="rounded=0;whiteSpace=wrap;html=1;fillColor=#f9f7ed;strokeColor=#36393d;" vertex="1" parent="0pEK2wuluWOF_c6K8Uz9-127">
          <mxGeometry x="67" y="82.5" width="87.71" height="32.05" as="geometry" />
        </mxCell>
        <mxCell id="f1HlEf__6IlxcF7phjeX-63" style="edgeStyle=orthogonalEdgeStyle;rounded=0;orthogonalLoop=1;jettySize=auto;html=1;exitX=0;exitY=0.5;exitDx=0;exitDy=0;strokeWidth=2;fillColor=#cce5ff;strokeColor=#3333FF;entryX=1;entryY=0.5;entryDx=0;entryDy=0;" parent="1" source="1glshwVwyARpWJLmnn8l-22" target="RJe6Ebz1gldGJF1w0rcR-1" edge="1">
          <mxGeometry relative="1" as="geometry">
            <Array as="points">
              <mxPoint x="485" y="500" />
              <mxPoint x="360" y="500" />
              <mxPoint x="360" y="300" />
            </Array>
            <mxPoint x="260" y="300" as="targetPoint" />
          </mxGeometry>
        </mxCell>
        <mxCell id="0pEK2wuluWOF_c6K8Uz9-103" style="edgeStyle=orthogonalEdgeStyle;rounded=0;orthogonalLoop=1;jettySize=auto;html=1;exitX=0.5;exitY=1;exitDx=0;exitDy=0;strokeWidth=2;entryX=1;entryY=0.5;entryDx=0;entryDy=0;strokeColor=#3333FF;" parent="1" source="0pEK2wuluWOF_c6K8Uz9-79" target="0pEK2wuluWOF_c6K8Uz9-90" edge="1">
          <mxGeometry relative="1" as="geometry">
            <mxPoint x="585" y="260" as="targetPoint" />
            <Array as="points">
              <mxPoint x="1430" y="690" />
              <mxPoint x="680" y="690" />
              <mxPoint x="680" y="203" />
            </Array>
          </mxGeometry>
        </mxCell>
        <mxCell id="0pEK2wuluWOF_c6K8Uz9-71" style="edgeStyle=orthogonalEdgeStyle;rounded=0;orthogonalLoop=1;jettySize=auto;html=1;strokeWidth=2;exitX=0.953;exitY=0.399;exitDx=0;exitDy=0;exitPerimeter=0;strokeColor=#FF0000;" parent="1" edge="1">
          <mxGeometry relative="1" as="geometry">
            <mxPoint x="848.0037442857147" y="469.0219972727273" as="sourcePoint" />
            <mxPoint x="1062" y="220" as="targetPoint" />
            <Array as="points">
              <mxPoint x="998" y="469" />
              <mxPoint x="998" y="220" />
            </Array>
          </mxGeometry>
        </mxCell>
        <mxCell id="QdECZXzs4moKlUNYnFSm-8" style="edgeStyle=orthogonalEdgeStyle;rounded=0;orthogonalLoop=1;jettySize=auto;html=1;exitX=0;exitY=0.5;exitDx=0;exitDy=0;entryX=0.5;entryY=0;entryDx=0;entryDy=0;" parent="1" source="QdECZXzs4moKlUNYnFSm-4" target="1glshwVwyARpWJLmnn8l-63" edge="1">
          <mxGeometry relative="1" as="geometry" />
        </mxCell>
        <mxCell id="QdECZXzs4moKlUNYnFSm-9" value="flag == 0" style="edgeLabel;html=1;align=center;verticalAlign=middle;resizable=0;points=[];labelBackgroundColor=#D2DBE7;" parent="QdECZXzs4moKlUNYnFSm-8" vertex="1" connectable="0">
          <mxGeometry x="-0.2455" y="1" relative="1" as="geometry">
            <mxPoint x="133" y="-1" as="offset" />
          </mxGeometry>
        </mxCell>
        <mxCell id="QdECZXzs4moKlUNYnFSm-4" value="flag&amp;nbsp;" style="rhombus;whiteSpace=wrap;html=1;container=0;fillColor=#f8cecc;strokeColor=#b85450;" parent="1" vertex="1">
          <mxGeometry x="280" y="62.5" width="80" height="60" as="geometry" />
        </mxCell>
        <mxCell id="QdECZXzs4moKlUNYnFSm-13" style="edgeStyle=orthogonalEdgeStyle;rounded=0;orthogonalLoop=1;jettySize=auto;html=1;exitX=1;exitY=0.5;exitDx=0;exitDy=0;" parent="1" source="QdECZXzs4moKlUNYnFSm-4" target="f1HlEf__6IlxcF7phjeX-36" edge="1">
          <mxGeometry relative="1" as="geometry">
            <mxPoint x="480" y="99.53999999999999" as="sourcePoint" />
          </mxGeometry>
        </mxCell>
        <mxCell id="QdECZXzs4moKlUNYnFSm-15" style="edgeStyle=orthogonalEdgeStyle;rounded=0;orthogonalLoop=1;jettySize=auto;html=1;" parent="1" source="QdECZXzs4moKlUNYnFSm-4" target="f1HlEf__6IlxcF7phjeX-32" edge="1">
          <mxGeometry relative="1" as="geometry">
            <Array as="points">
              <mxPoint x="530" y="92" />
            </Array>
            <mxPoint x="440" y="127.03999999999999" as="sourcePoint" />
          </mxGeometry>
        </mxCell>
        <mxCell id="QdECZXzs4moKlUNYnFSm-16" value="&lt;span style=&quot;background-color: rgb(210, 219, 231);&quot;&gt;flag == 1&lt;/span&gt;" style="edgeLabel;html=1;align=center;verticalAlign=middle;resizable=0;points=[];" parent="QdECZXzs4moKlUNYnFSm-15" vertex="1" connectable="0">
          <mxGeometry x="0.1977" y="4" relative="1" as="geometry">
            <mxPoint x="-60" y="4" as="offset" />
          </mxGeometry>
        </mxCell>
        <mxCell id="kf9Kc_V3g3IdQbujQbts-16" value="Rx Interrupt" style="text;html=1;strokeColor=none;fillColor=none;align=center;verticalAlign=middle;whiteSpace=wrap;rounded=0;" parent="1" vertex="1">
          <mxGeometry x="-190" y="172.04" width="70" height="30" as="geometry" />
        </mxCell>
        <mxCell id="kf9Kc_V3g3IdQbujQbts-18" value="&amp;nbsp;Tx Interrupt" style="text;html=1;strokeColor=none;fillColor=none;align=center;verticalAlign=middle;whiteSpace=wrap;rounded=0;" parent="1" vertex="1">
          <mxGeometry x="80" y="172.04" width="70" height="30" as="geometry" />
        </mxCell>
        <mxCell id="kf9Kc_V3g3IdQbujQbts-27" value="" style="endArrow=classic;html=1;rounded=0;entryX=0.5;entryY=0;entryDx=0;entryDy=0;" parent="1" target="QdECZXzs4moKlUNYnFSm-4" edge="1">
          <mxGeometry width="50" height="50" relative="1" as="geometry">
            <mxPoint x="320" y="30" as="sourcePoint" />
            <mxPoint x="410" y="332.04" as="targetPoint" />
          </mxGeometry>
        </mxCell>
        <mxCell id="kf9Kc_V3g3IdQbujQbts-28" value="" style="endArrow=classic;html=1;rounded=0;entryX=0.523;entryY=-0.012;entryDx=0;entryDy=0;entryPerimeter=0;exitX=0.442;exitY=0.976;exitDx=0;exitDy=0;exitPerimeter=0;" parent="1" source="1glshwVwyARpWJLmnn8l-3" target="0pEK2wuluWOF_c6K8Uz9-34" edge="1">
          <mxGeometry width="50" height="50" relative="1" as="geometry">
            <mxPoint x="360" y="420" as="sourcePoint" />
            <mxPoint x="410" y="370" as="targetPoint" />
          </mxGeometry>
        </mxCell>
        <mxCell id="yr6knBJ-R2vz9ehcWOlT-2" value="" style="endArrow=classic;html=1;rounded=0;entryX=0.5;entryY=0;entryDx=0;entryDy=0;" parent="1" target="1glshwVwyARpWJLmnn8l-30" edge="1">
          <mxGeometry width="50" height="50" relative="1" as="geometry">
            <mxPoint x="198" y="93" as="sourcePoint" />
            <mxPoint x="260" y="140" as="targetPoint" />
            <Array as="points">
              <mxPoint x="198" y="93" />
            </Array>
          </mxGeometry>
        </mxCell>
        <mxCell id="0pEK2wuluWOF_c6K8Uz9-104" style="edgeStyle=orthogonalEdgeStyle;rounded=0;orthogonalLoop=1;jettySize=auto;html=1;entryX=1;entryY=0.5;entryDx=0;entryDy=0;strokeWidth=2;exitX=0;exitY=0.5;exitDx=0;exitDy=0;strokeColor=#FF0000;" parent="1" target="RJe6Ebz1gldGJF1w0rcR-5" edge="1">
          <mxGeometry relative="1" as="geometry">
            <Array as="points">
              <mxPoint x="-120" y="420" />
              <mxPoint x="-120" y="421" />
              <mxPoint x="-220" y="421" />
              <mxPoint x="-220" y="140" />
              <mxPoint x="860" y="140" />
              <mxPoint x="860" y="259" />
            </Array>
            <mxPoint x="-106.25" y="420" as="sourcePoint" />
            <mxPoint x="830.2198039215691" y="240.49450980392157" as="targetPoint" />
          </mxGeometry>
        </mxCell>
        <mxCell id="yr6knBJ-R2vz9ehcWOlT-12" value="" style="group" parent="1" vertex="1" connectable="0">
          <mxGeometry x="760" y="-200" width="250" height="280" as="geometry" />
        </mxCell>
        <mxCell id="yr6knBJ-R2vz9ehcWOlT-13" value="" style="verticalLabelPosition=bottom;verticalAlign=top;html=1;shape=mxgraph.basic.rect;fillColor2=none;strokeWidth=1;size=20;indent=5;container=0;fillColor=#f5f5f5;strokeColor=#666666;fontColor=#333333;" parent="yr6knBJ-R2vz9ehcWOlT-12" vertex="1">
          <mxGeometry width="250.00000000000003" height="280" as="geometry" />
        </mxCell>
        <mxCell id="yr6knBJ-R2vz9ehcWOlT-89" style="edgeStyle=orthogonalEdgeStyle;rounded=0;orthogonalLoop=1;jettySize=auto;html=1;exitX=0;exitY=0.5;exitDx=0;exitDy=0;entryX=0;entryY=0.5;entryDx=0;entryDy=0;" parent="yr6knBJ-R2vz9ehcWOlT-12" source="yr6knBJ-R2vz9ehcWOlT-17" target="yr6knBJ-R2vz9ehcWOlT-14" edge="1">
          <mxGeometry relative="1" as="geometry">
            <Array as="points">
              <mxPoint x="30" y="250" />
              <mxPoint x="30" y="113" />
            </Array>
          </mxGeometry>
        </mxCell>
        <mxCell id="yr6knBJ-R2vz9ehcWOlT-90" value="NO" style="edgeLabel;html=1;align=center;verticalAlign=middle;resizable=0;points=[];labelBackgroundColor=#F5F5F5;" parent="yr6knBJ-R2vz9ehcWOlT-89" vertex="1" connectable="0">
          <mxGeometry x="-0.0456" y="1" relative="1" as="geometry">
            <mxPoint x="24" y="52" as="offset" />
          </mxGeometry>
        </mxCell>
        <mxCell id="yr6knBJ-R2vz9ehcWOlT-17" value="Timer Overflow?" style="rhombus;whiteSpace=wrap;html=1;container=0;fillColor=#f8cecc;strokeColor=#b85450;" parent="yr6knBJ-R2vz9ehcWOlT-12" vertex="1">
          <mxGeometry x="76.93" y="230" width="96.13" height="40" as="geometry" />
        </mxCell>
        <mxCell id="yr6knBJ-R2vz9ehcWOlT-91" style="edgeStyle=orthogonalEdgeStyle;rounded=0;orthogonalLoop=1;jettySize=auto;html=1;exitX=0.5;exitY=1;exitDx=0;exitDy=0;entryX=0.5;entryY=0;entryDx=0;entryDy=0;" parent="yr6knBJ-R2vz9ehcWOlT-12" source="yr6knBJ-R2vz9ehcWOlT-20" target="yr6knBJ-R2vz9ehcWOlT-14" edge="1">
          <mxGeometry relative="1" as="geometry" />
        </mxCell>
        <mxCell id="yr6knBJ-R2vz9ehcWOlT-20" value="Watchdog Timer Interrupt" style="rounded=0;whiteSpace=wrap;html=1;container=0;fillColor=#f9f7ed;strokeColor=#36393d;" parent="yr6knBJ-R2vz9ehcWOlT-12" vertex="1">
          <mxGeometry x="52.58333333333334" y="30.158333333333335" width="144.83333333333334" height="39.85333333333334" as="geometry" />
        </mxCell>
        <mxCell id="yr6knBJ-R2vz9ehcWOlT-21" value="watchdog" style="text;html=1;strokeColor=none;fillColor=none;align=center;verticalAlign=middle;whiteSpace=wrap;rounded=0;container=0;" parent="yr6knBJ-R2vz9ehcWOlT-12" vertex="1">
          <mxGeometry width="100.76785714285715" height="30.153846153846164" as="geometry" />
        </mxCell>
        <mxCell id="yr6knBJ-R2vz9ehcWOlT-95" style="edgeStyle=orthogonalEdgeStyle;rounded=0;orthogonalLoop=1;jettySize=auto;html=1;exitX=0.5;exitY=1;exitDx=0;exitDy=0;" parent="yr6knBJ-R2vz9ehcWOlT-12" source="yr6knBJ-R2vz9ehcWOlT-14" target="yr6knBJ-R2vz9ehcWOlT-87" edge="1">
          <mxGeometry relative="1" as="geometry" />
        </mxCell>
        <mxCell id="yr6knBJ-R2vz9ehcWOlT-14" value="Timer Increase" style="rounded=0;whiteSpace=wrap;html=1;container=0;fillColor=#f9f7ed;strokeColor=#36393d;" parent="yr6knBJ-R2vz9ehcWOlT-12" vertex="1">
          <mxGeometry x="53.26388888888889" y="93.33333333333334" width="144.83333333333334" height="39.620000000000005" as="geometry" />
        </mxCell>
        <mxCell id="yr6knBJ-R2vz9ehcWOlT-87" value="Timer reset?" style="rhombus;whiteSpace=wrap;html=1;container=0;fillColor=#f8cecc;strokeColor=#b85450;" parent="yr6knBJ-R2vz9ehcWOlT-12" vertex="1">
          <mxGeometry x="86.07000000000001" y="160" width="79.23" height="40" as="geometry" />
        </mxCell>
        <mxCell id="yr6knBJ-R2vz9ehcWOlT-101" style="edgeStyle=orthogonalEdgeStyle;rounded=0;orthogonalLoop=1;jettySize=auto;html=1;exitX=0.5;exitY=1;exitDx=0;exitDy=0;entryX=0.5;entryY=0;entryDx=0;entryDy=0;" parent="yr6knBJ-R2vz9ehcWOlT-12" source="yr6knBJ-R2vz9ehcWOlT-87" target="yr6knBJ-R2vz9ehcWOlT-17" edge="1">
          <mxGeometry relative="1" as="geometry">
            <Array as="points">
              <mxPoint x="126" y="220" />
              <mxPoint x="125" y="230" />
            </Array>
          </mxGeometry>
        </mxCell>
        <mxCell id="yr6knBJ-R2vz9ehcWOlT-102" value="NO" style="edgeLabel;html=1;align=center;verticalAlign=middle;resizable=0;points=[];" parent="yr6knBJ-R2vz9ehcWOlT-101" vertex="1" connectable="0">
          <mxGeometry x="-0.4834" y="2" relative="1" as="geometry">
            <mxPoint x="6" y="2" as="offset" />
          </mxGeometry>
        </mxCell>
        <mxCell id="yr6knBJ-R2vz9ehcWOlT-24" style="edgeStyle=orthogonalEdgeStyle;rounded=0;orthogonalLoop=1;jettySize=auto;html=1;exitX=1;exitY=0.5;exitDx=0;exitDy=0;entryX=1;entryY=0.5;entryDx=0;entryDy=0;" parent="1" source="yr6knBJ-R2vz9ehcWOlT-17" target="1glshwVwyARpWJLmnn8l-3" edge="1">
          <mxGeometry relative="1" as="geometry">
            <Array as="points">
              <mxPoint x="980" y="50" />
              <mxPoint x="980" y="-210" />
              <mxPoint x="430" y="-210" />
              <mxPoint x="430" y="-170" />
            </Array>
          </mxGeometry>
        </mxCell>
        <mxCell id="yr6knBJ-R2vz9ehcWOlT-88" value="YES" style="edgeLabel;html=1;align=center;verticalAlign=middle;resizable=0;points=[];labelBackgroundColor=#F5F5F5;" parent="yr6knBJ-R2vz9ehcWOlT-24" vertex="1" connectable="0">
          <mxGeometry x="-0.9422" relative="1" as="geometry">
            <mxPoint x="11" as="offset" />
          </mxGeometry>
        </mxCell>
        <mxCell id="yr6knBJ-R2vz9ehcWOlT-52" value="" style="endArrow=none;html=1;rounded=0;exitX=0.5;exitY=1;exitDx=0;exitDy=0;" parent="1" source="0pEK2wuluWOF_c6K8Uz9-151" edge="1">
          <mxGeometry width="50" height="50" relative="1" as="geometry">
            <mxPoint x="520" y="800" as="sourcePoint" />
            <mxPoint x="534" y="620" as="targetPoint" />
          </mxGeometry>
        </mxCell>
        <mxCell id="yr6knBJ-R2vz9ehcWOlT-53" value="YES" style="edgeLabel;html=1;align=center;verticalAlign=middle;resizable=0;points=[];labelBackgroundColor=#FFE6CC;" parent="yr6knBJ-R2vz9ehcWOlT-52" vertex="1" connectable="0">
          <mxGeometry x="0.3206" y="3" relative="1" as="geometry">
            <mxPoint x="-1" y="-8" as="offset" />
          </mxGeometry>
        </mxCell>
        <mxCell id="yr6knBJ-R2vz9ehcWOlT-82" value="" style="endArrow=classic;html=1;rounded=0;entryX=0.5;entryY=0;entryDx=0;entryDy=0;" parent="1" target="RJe6Ebz1gldGJF1w0rcR-4" edge="1">
          <mxGeometry width="50" height="50" relative="1" as="geometry">
            <mxPoint x="-70" y="360" as="sourcePoint" />
            <mxPoint x="-70" y="401.02" as="targetPoint" />
          </mxGeometry>
        </mxCell>
        <mxCell id="yr6knBJ-R2vz9ehcWOlT-93" value="" style="endArrow=none;html=1;rounded=0;entryX=0;entryY=0.5;entryDx=0;entryDy=0;" parent="1" target="yr6knBJ-R2vz9ehcWOlT-87" edge="1">
          <mxGeometry width="50" height="50" relative="1" as="geometry">
            <mxPoint x="790" y="-20" as="sourcePoint" />
            <mxPoint x="490" y="-30" as="targetPoint" />
            <Array as="points" />
          </mxGeometry>
        </mxCell>
        <mxCell id="yr6knBJ-R2vz9ehcWOlT-94" value="YES" style="edgeLabel;html=1;align=center;verticalAlign=middle;resizable=0;points=[];labelBackgroundColor=#F5F5F5;" parent="yr6knBJ-R2vz9ehcWOlT-93" vertex="1" connectable="0">
          <mxGeometry x="0.4197" y="2" relative="1" as="geometry">
            <mxPoint x="-10" y="2" as="offset" />
          </mxGeometry>
        </mxCell>
        <mxCell id="yr6knBJ-R2vz9ehcWOlT-106" value="" style="endArrow=classic;html=1;rounded=0;entryX=-0.014;entryY=0.279;entryDx=0;entryDy=0;entryPerimeter=0;" parent="1" edge="1">
          <mxGeometry width="50" height="50" relative="1" as="geometry">
            <mxPoint x="334" y="-120" as="sourcePoint" />
            <mxPoint x="760.5" y="-121.87999999999988" as="targetPoint" />
          </mxGeometry>
        </mxCell>
        <mxCell id="yr6knBJ-R2vz9ehcWOlT-108" style="edgeStyle=orthogonalEdgeStyle;rounded=0;orthogonalLoop=1;jettySize=auto;html=1;exitX=0.5;exitY=1;exitDx=0;exitDy=0;entryX=0.838;entryY=1.004;entryDx=0;entryDy=0;entryPerimeter=0;" parent="1" source="yr6knBJ-R2vz9ehcWOlT-54" target="yr6knBJ-R2vz9ehcWOlT-13" edge="1">
          <mxGeometry relative="1" as="geometry">
            <Array as="points">
              <mxPoint x="-117" y="710" />
              <mxPoint x="969" y="710" />
            </Array>
          </mxGeometry>
        </mxCell>
        <mxCell id="yr6knBJ-R2vz9ehcWOlT-109" value="" style="endArrow=none;html=1;rounded=0;exitX=0.5;exitY=1;exitDx=0;exitDy=0;" parent="1" source="yr6knBJ-R2vz9ehcWOlT-36" edge="1">
          <mxGeometry width="50" height="50" relative="1" as="geometry">
            <mxPoint x="280" y="590" as="sourcePoint" />
            <mxPoint x="595" y="710" as="targetPoint" />
          </mxGeometry>
        </mxCell>
        <mxCell id="RJe6Ebz1gldGJF1w0rcR-1" value="TX_buff" style="rounded=0;whiteSpace=wrap;html=1;fillColor=#f9f7ed;strokeColor=#36393d;" vertex="1" parent="1">
          <mxGeometry x="140" y="270" width="115" height="60" as="geometry" />
        </mxCell>
        <mxCell id="RJe6Ebz1gldGJF1w0rcR-4" value="RX_buff" style="rounded=0;whiteSpace=wrap;html=1;fillColor=#f9f7ed;strokeColor=#36393d;" vertex="1" parent="1">
          <mxGeometry x="-120" y="400" width="100" height="40" as="geometry" />
        </mxCell>
      </root>
    </mxGraphModel>
  </diagram>
</mxfile>
